<svg width="44" height="45" viewBox="0 0 44 45" fill="none" xmlns="http://www.w3.org/2000/svg">
<path d="M32.8165 32.6062C32.3398 31.1062 30.9648 30 29.3332 30H27.4998V24.375C27.4998 23.8777 27.3067 23.4008 26.9629 23.0492C26.619 22.6975 26.1527 22.5 25.6665 22.5H14.6665V18.75H18.3332C18.8194 18.75 19.2857 18.5525 19.6295 18.2008C19.9733 17.8492 20.1665 17.3723 20.1665 16.875V13.125H23.8332C24.8056 13.125 25.7383 12.7299 26.4259 12.0267C27.1135 11.3234 27.4998 10.3696 27.4998 9.375V8.60625C29.6934 9.51068 31.64 10.9453 33.173 12.7872C34.7059 14.6291 35.7797 16.8235 36.3023 19.1826C36.8249 21.5416 36.7808 23.9951 36.1737 26.3329C35.5666 28.6707 34.4147 30.8232 32.8165 32.6062ZM20.1665 37.3688C12.9248 36.45 7.33317 30.15 7.33317 22.5C7.33317 21.3375 7.47984 20.2125 7.71817 19.1438L16.4998 28.125V30C16.4998 30.9946 16.8861 31.9484 17.5738 32.6516C18.2614 33.3549 19.194 33.75 20.1665 33.75M21.9998 3.75C19.5923 3.75 17.2083 4.23498 14.984 5.17726C12.7597 6.11953 10.7386 7.50065 9.03621 9.24175C5.59805 12.7581 3.6665 17.5272 3.6665 22.5C3.6665 27.4728 5.59805 32.2419 9.03621 35.7583C10.7386 37.4994 12.7597 38.8805 14.984 39.8227C17.2083 40.765 19.5923 41.25 21.9998 41.25C26.8621 41.25 31.5253 39.2746 34.9635 35.7583C38.4016 32.2419 40.3332 27.4728 40.3332 22.5C40.3332 20.0377 39.859 17.5995 38.9376 15.3247C38.0163 13.0498 36.6659 10.9828 34.9635 9.24175C33.2611 7.50065 31.24 6.11953 29.0157 5.17726C26.7914 4.23498 24.4074 3.75 21.9998 3.75Z" fill="white"/>
</svg>
