<svg width="52" height="41" viewBox="0 0 52 41" fill="none" xmlns="http://www.w3.org/2000/svg">
<path d="M29.25 5.76562C29.25 4.9161 28.9076 4.10138 28.2981 3.50067C27.6886 2.89997 26.862 2.5625 26 2.5625C25.138 2.5625 24.3114 2.89997 23.7019 3.50067C23.0924 4.10138 22.75 4.9161 22.75 5.76562C22.75 6.61515 23.0924 7.42987 23.7019 8.03058C24.3114 8.63128 25.138 8.96875 26 8.96875C26.862 8.96875 27.6886 8.63128 28.2981 8.03058C28.9076 7.42987 29.25 6.61515 29.25 5.76562ZM11.7 16.6562C12.562 16.6562 13.3886 16.3188 13.9981 15.7181C14.6076 15.1174 14.95 14.3026 14.95 13.4531C14.95 12.6036 14.6076 11.7889 13.9981 11.1882C13.3886 10.5875 12.562 10.25 11.7 10.25C10.838 10.25 10.0114 10.5875 9.4019 11.1882C8.79241 11.7889 8.45 12.6036 8.45 13.4531C8.45 14.3026 8.79241 15.1174 9.4019 15.7181C10.0114 16.3188 10.838 16.6562 11.7 16.6562ZM2.6 33.3125C1.16187 33.3125 0 34.4576 0 35.875C0 37.2924 1.16187 38.4375 2.6 38.4375H49.4C50.8381 38.4375 52 37.2924 52 35.875C52 34.4576 50.8381 33.3125 49.4 33.3125H2.6ZM40.3 16.6562C41.162 16.6562 41.9886 16.3188 42.5981 15.7181C43.2076 15.1174 43.55 14.3026 43.55 13.4531C43.55 12.6036 43.2076 11.7889 42.5981 11.1882C41.9886 10.5875 41.162 10.25 40.3 10.25C39.438 10.25 38.6114 10.5875 38.0019 11.1882C37.3924 11.7889 37.05 12.6036 37.05 13.4531C37.05 14.3026 37.3924 15.1174 38.0019 15.7181C38.6114 16.3188 39.438 16.6562 40.3 16.6562ZM16.25 25.1045L18.4356 29.1004C18.9475 30.0373 20.1256 30.3816 21.0762 29.8852C22.0269 29.3887 22.3762 28.2195 21.8725 27.2826L18.9231 21.8773C19.0612 21.7412 19.1831 21.5891 19.2725 21.4129L21.45 17.417V21.7812C21.45 23.1986 22.6119 24.3438 24.05 24.3438H27.95C29.3881 24.3438 30.55 23.1986 30.55 21.7812V17.417L32.7356 21.4129C32.8331 21.5891 32.9469 21.7412 33.085 21.8773L30.1356 27.2826C29.6237 28.2195 29.9813 29.3807 30.9319 29.8852C31.8825 30.3897 33.0606 30.0373 33.5725 29.1004L35.75 25.1045V28.1875C35.75 29.6049 36.9119 30.75 38.35 30.75H42.25C43.6881 30.75 44.85 29.6049 44.85 28.1875V25.1045L47.0356 29.1004C47.5475 30.0373 48.7256 30.3816 49.6763 29.8852C50.6269 29.3887 50.9762 28.2195 50.4725 27.2826L47.3931 21.6531C46.15 19.3709 43.7287 17.9455 41.0962 17.9455H39.5037C38.1794 17.9455 36.9119 18.3059 35.815 18.9545L33.085 13.9656C31.8419 11.6834 29.4206 10.258 26.7881 10.258H25.2038C22.5713 10.258 20.1581 11.6834 18.9069 13.9656L16.1769 18.9545C15.08 18.3059 13.8125 17.9455 12.4881 17.9455H10.9037C8.27125 17.9455 5.85812 19.3709 4.60687 21.6531L1.53562 27.2746C1.02375 28.2115 1.38125 29.3727 2.33188 29.8771C3.2825 30.3816 4.46062 30.0293 4.9725 29.0924L7.15 25.1045V28.1875C7.15 29.6049 8.31187 30.75 9.75 30.75H13.65C15.0881 30.75 16.25 29.6049 16.25 28.1875V25.1045Z" fill="white"/>
</svg>
