<svg width="46" height="39" viewBox="0 0 46 39" fill="none" xmlns="http://www.w3.org/2000/svg">
<path d="M42.4615 0H3.53846C2.6 0 1.69998 0.373538 1.03639 1.03844C0.372801 1.70334 0 2.60514 0 3.54545V35.4545C0 36.3949 0.372801 37.2967 1.03639 37.9616C1.69998 38.6265 2.6 39 3.53846 39H42.4615C43.4 39 44.3 38.6265 44.9636 37.9616C45.6272 37.2967 46 36.3949 46 35.4545V3.54545C46 2.60514 45.6272 1.70334 44.9636 1.03844C44.3 0.373538 43.4 0 42.4615 0ZM40.1748 10.1178L18.944 31.3906C18.7797 31.5554 18.5846 31.6861 18.3698 31.7754C18.155 31.8646 17.9248 31.9105 17.6923 31.9105C17.4598 31.9105 17.2296 31.8646 17.0148 31.7754C16.8 31.6861 16.6049 31.5554 16.4406 31.3906L7.59442 22.5269C7.26244 22.1943 7.07594 21.7431 7.07594 21.2727C7.07594 20.8023 7.26244 20.3512 7.59442 20.0185C7.9264 19.6859 8.37666 19.499 8.84615 19.499C9.31564 19.499 9.76591 19.6859 10.0979 20.0185L17.6923 27.6302L37.6713 7.60943C38.0033 7.2768 38.4536 7.08992 38.9231 7.08992C39.3926 7.08992 39.8428 7.2768 40.1748 7.60943C40.5068 7.94207 40.6933 8.39322 40.6933 8.86364C40.6933 9.33405 40.5068 9.78521 40.1748 10.1178Z" fill="white"/>
</svg>
