<svg width="30" height="41" viewBox="0 0 30 41" fill="none" xmlns="http://www.w3.org/2000/svg">
<path fill-rule="evenodd" clip-rule="evenodd" d="M22.14 28.9874C22.0543 29.1931 21.9709 29.3999 21.89 29.6076C17.4182 31.0903 12.5818 31.0903 8.11 29.6076C8.02915 29.3999 7.94581 29.1931 7.86 28.9874C7.6225 28.4168 7.5025 28.129 7.295 27.8661C7.09 27.6007 6.73 27.3327 6.01 26.7994C3.48898 24.9264 1.62599 22.3136 0.685095 19.3313C-0.255804 16.349 -0.226877 13.1485 0.767776 10.1834C1.76243 7.21835 3.67235 4.63913 6.22681 2.81136C8.78128 0.983592 11.8507 0 15 0C18.1493 0 21.2187 0.983592 23.7732 2.81136C26.3277 4.63913 28.2376 7.21835 29.2322 10.1834C30.2269 13.1485 30.2558 16.349 29.3149 19.3313C28.374 22.3136 26.511 24.9264 23.99 26.7994C23.27 27.3327 22.91 27.6007 22.705 27.8661C22.4975 28.129 22.38 28.4143 22.14 28.9874ZM9.625 35.1396C9.8425 36.4469 9.965 37.7717 9.995 39.1038C9.99752 39.2799 10.0484 39.452 10.1423 39.6015C10.2361 39.751 10.3693 39.8723 10.5275 39.9522C11.9162 40.6413 13.4474 41 15 41C16.5526 41 18.0838 40.6413 19.4725 39.9522C19.6307 39.8723 19.7639 39.751 19.8577 39.6015C19.9516 39.452 20.0025 39.2799 20.005 39.1038C20.035 37.7717 20.1575 36.4494 20.375 35.1396C16.8286 35.8615 13.1714 35.8615 9.625 35.1396Z" fill="white"/>
</svg>
