<svg width="49" height="49" viewBox="0 0 49 49" fill="none" xmlns="http://www.w3.org/2000/svg">
<path d="M16.0781 24.5C18.3117 24.5 20.4539 23.6127 22.0333 22.0333C23.6127 20.4539 24.5 18.3117 24.5 16.0781C24.5 13.8445 23.6127 11.7024 22.0333 10.123C20.4539 8.54355 18.3117 7.65625 16.0781 7.65625C13.8445 7.65625 11.7024 8.54355 10.123 10.123C8.54355 11.7024 7.65625 13.8445 7.65625 16.0781C7.65625 18.3117 8.54355 20.4539 10.123 22.0333C11.7024 23.6127 13.8445 24.5 16.0781 24.5ZM35.2188 24.5C36.8432 24.5 38.4011 23.8547 39.5498 22.706C40.6984 21.5574 41.3438 19.9995 41.3438 18.375C41.3438 16.7505 40.6984 15.1926 39.5498 14.044C38.4011 12.8953 36.8432 12.25 35.2188 12.25C33.5943 12.25 32.0364 12.8953 30.8877 14.044C29.7391 15.1926 29.0938 16.7505 29.0938 18.375C29.0938 19.9995 29.7391 21.5574 30.8877 22.706C32.0364 23.8547 33.5943 24.5 35.2188 24.5ZM7.65625 27.5625C6.43791 27.5625 5.26947 28.0465 4.40798 28.908C3.54648 29.7695 3.0625 30.9379 3.0625 32.1562V32.3859C3.0625 32.3859 3.0625 41.3438 16.0781 41.3438C29.0938 41.3438 29.0938 32.3859 29.0938 32.3859V32.1562C29.0938 30.9379 28.6098 29.7695 27.7483 28.908C26.8868 28.0465 25.7183 27.5625 24.5 27.5625H7.65625ZM35.2188 38.2812C32.9893 38.2812 31.2253 37.9781 29.8272 37.4957C30.4887 36.4238 30.8685 35.3902 31.0828 34.5557C31.239 33.956 31.338 33.3428 31.3784 32.7243L31.3845 32.5605L31.386 32.4962V32.1562C31.3893 30.461 30.7647 28.8245 29.6327 27.5625H42.2518C42.7357 27.5623 43.215 27.6574 43.6621 27.8425C44.1093 28.0276 44.5156 28.2989 44.8579 28.641C45.2002 28.9832 45.4717 29.3894 45.6569 29.8365C45.8422 30.2835 45.9375 30.7627 45.9375 31.2467C45.9375 31.2467 45.9375 38.2812 35.2188 38.2812Z" fill="white"/>
</svg>
