<svg width="42" height="34" viewBox="0 0 42 34" fill="none" xmlns="http://www.w3.org/2000/svg">
<path d="M1.90909 30.2222V9.44444H0V5.66667H5.72727V1.88889C5.72727 1.38792 5.92841 0.907478 6.28643 0.553243C6.64446 0.199007 7.13004 0 7.63636 0H34.3636C34.87 0 35.3555 0.199007 35.7136 0.553243C36.0716 0.907478 36.2727 1.38792 36.2727 1.88889V5.66667H42V9.44444H40.0909V30.2222H42V34H0V30.2222H1.90909ZM22.9091 30.2222V17H19.0909V30.2222H22.9091ZM13.3636 30.2222V17H9.54545V30.2222H13.3636ZM32.4545 30.2222V17H28.6364V30.2222H32.4545ZM9.54545 3.77778V5.66667H32.4545V3.77778H9.54545Z" fill="white"/>
</svg>
