<svg width="49" height="48" viewBox="0 0 49 48" fill="none" xmlns="http://www.w3.org/2000/svg">
<g id="Group">
<path id="Vector" d="M25.9457 1.18336C25.3529 0.590732 24.549 0.257812 23.7108 0.257812C22.8725 0.257812 22.0686 0.590732 21.4758 1.18336L0.463527 22.1925C0.316571 22.3395 0.199999 22.5139 0.120467 22.7059C0.0409347 22.8979 0 23.1037 0 23.3115C0 23.5194 0.0409347 23.7252 0.120467 23.9172C0.199999 24.1092 0.316571 24.2836 0.463527 24.4306C0.760319 24.7274 1.16285 24.8941 1.58258 24.8941C1.79041 24.8941 1.9962 24.8532 2.18821 24.7737C2.38022 24.6941 2.55468 24.5776 2.70164 24.4306L23.7108 3.41831L44.7199 24.4306C45.0167 24.7274 45.4192 24.8941 45.839 24.8941C46.2587 24.8941 46.6612 24.7274 46.958 24.4306C47.2548 24.1338 47.4215 23.7313 47.4215 23.3115C47.4215 22.8918 47.2548 22.4893 46.958 22.1925L39.5166 14.7543V4.34453C39.5166 3.92533 39.3501 3.52331 39.0537 3.22689C38.7573 2.93047 38.3552 2.76395 37.936 2.76395H34.7749C34.3557 2.76395 33.9536 2.93047 33.6572 3.22689C33.3608 3.52331 33.1943 3.92533 33.1943 4.34453V8.43192L25.9457 1.18336Z" fill="white"/>
<path id="Vector_2" d="M23.7105 6.85156L38.606 21.747C35.9759 21.6227 33.3629 22.2309 31.058 23.5037C28.7531 24.7766 26.8466 26.6642 25.5509 28.9564C24.2553 31.2485 23.6212 33.8553 23.7193 36.4865C23.8174 39.1177 24.6439 41.6701 26.1067 43.8594H9.48528C8.22769 43.8594 7.02161 43.3598 6.13236 42.4706C5.24311 41.5813 4.74353 40.3752 4.74353 39.1176V25.8186L23.7105 6.85156Z" fill="white"/>
<path id="Vector_3" d="M37.9358 47.0203C40.8702 47.0203 43.6844 45.8546 45.7593 43.7797C47.8342 41.7048 48.9999 38.8906 48.9999 35.9562C48.9999 33.0218 47.8342 30.2076 45.7593 28.1327C43.6844 26.0578 40.8702 24.8921 37.9358 24.8921C35.0014 24.8921 32.1872 26.0578 30.1123 28.1327C28.0374 30.2076 26.8717 33.0218 26.8717 35.9562C26.8717 38.8906 28.0374 41.7048 30.1123 43.7797C32.1872 45.8546 35.0014 47.0203 37.9358 47.0203ZM43.2434 32.8171L39.0232 39.8539C38.8378 40.1631 38.5843 40.4258 38.282 40.6223C37.9797 40.8187 37.6366 40.9436 37.2788 40.9875C36.9209 41.0314 36.5578 40.9931 36.217 40.8756C35.8762 40.758 35.5667 40.5643 35.312 40.3091L32.8653 37.8655C32.5689 37.5687 32.4026 37.1664 32.4029 36.7469C32.4032 36.3275 32.5701 35.9254 32.8669 35.629C33.1637 35.3326 33.566 35.1663 33.9855 35.1666C34.4049 35.1669 34.807 35.3338 35.1034 35.6306L36.8325 37.3597L40.5311 31.1923C40.6378 31.0142 40.7785 30.8589 40.9452 30.7352C41.112 30.6115 41.3014 30.5218 41.5028 30.4713C41.7042 30.4208 41.9135 30.4105 42.1189 30.4409C42.3242 30.4713 42.5216 30.5419 42.6997 30.6486C42.8778 30.7553 43.0331 30.896 43.1568 31.0627C43.2805 31.2294 43.3702 31.4189 43.4207 31.6203C43.4712 31.8216 43.4815 32.031 43.4511 32.2363C43.4207 32.4417 43.3501 32.6391 43.2434 32.8171Z" fill="white"/>
</g>
</svg>
