<svg width="62" height="62" viewBox="0 0 62 62" fill="none" xmlns="http://www.w3.org/2000/svg">
<g id="Lightbulb circle" clip-path="url(#clip0_66_483)">
<g id="Group">
<g id="Group_2">
<path id="Vector" d="M31.0001 5.1665C16.7401 5.1665 5.16675 16.7398 5.16675 30.9998C5.16675 45.2598 16.7401 56.8332 31.0001 56.8332C45.2601 56.8332 56.8334 45.2598 56.8334 30.9998C56.8334 16.7398 45.2601 5.1665 31.0001 5.1665ZM31.0001 49.0832C28.8559 49.0832 27.1251 47.3523 27.1251 45.2082H34.8751C34.8751 47.3523 33.1442 49.0832 31.0001 49.0832ZM38.7501 42.6248H23.2501V38.7498H38.7501V42.6248ZM38.6726 36.1665H23.3276C20.1501 33.8157 18.0834 30.0698 18.0834 25.8332C18.0834 18.7032 23.8701 12.9165 31.0001 12.9165C38.1301 12.9165 43.9167 18.7032 43.9167 25.8332C43.9167 30.0698 41.8501 33.8157 38.6726 36.1665Z" fill="white"/>
</g>
</g>
</g>
<defs>
<clipPath id="clip0_66_483">
<rect width="62" height="62" fill="white"/>
</clipPath>
</defs>
</svg>
