<svg width="61" height="61" viewBox="0 0 61 61" fill="none" xmlns="http://www.w3.org/2000/svg">
<g id="mdi:home-climate">
<path id="Vector" d="M48.2917 20.3333C49.6399 20.3333 50.9329 20.8689 51.8862 21.8222C52.8395 22.7755 53.375 24.0685 53.375 25.4167V42.5983C54.9255 43.9963 55.9167 46.0296 55.9167 48.2917C55.9167 52.5108 52.5109 55.9167 48.2917 55.9167C44.0725 55.9167 40.6667 52.5108 40.6667 48.2917C40.6667 46.0296 41.658 43.9963 43.2084 42.5983V25.4167C43.2084 22.6208 45.4959 20.3333 48.2917 20.3333ZM48.2917 22.875C46.8938 22.875 45.75 24.0187 45.75 25.4167V27.9583H50.8334V25.4167C50.8334 24.0187 49.6896 22.875 48.2917 22.875ZM12.7084 50.8333V30.5H5.08337L30.5 7.625L41.6834 17.69C40.5635 18.6412 39.6648 19.8254 39.0502 21.16C38.4356 22.4946 38.1198 23.9474 38.125 25.4167V40.6667C36.5238 42.7762 35.5834 45.4196 35.5834 48.2917L35.8375 50.8333H12.7084Z" fill="white"/>
</g>
</svg>
