<svg width="57" height="57" viewBox="0 0 57 57" fill="none" xmlns="http://www.w3.org/2000/svg">
<g id="ion:water">
<path id="Vector" d="M29.5153 6.6931C29.3899 6.54664 29.2343 6.42905 29.0591 6.34844C28.8839 6.26782 28.6934 6.22607 28.5006 6.22607C28.3077 6.22607 28.1172 6.26782 27.942 6.34844C27.7669 6.42905 27.6112 6.54664 27.4858 6.6931C23.9612 10.8156 12.4688 25.0678 12.4688 35.6251C12.4688 45.4631 18.663 51.6563 28.5 51.6563C38.337 51.6563 44.5312 45.4631 44.5312 35.6251C44.5312 25.0678 33.0388 10.8156 29.5153 6.6931ZM30.2812 45.8672C30.0673 45.8677 29.8563 45.8168 29.6661 45.7187C29.476 45.6207 29.3121 45.4784 29.1884 45.3038C29.0646 45.1292 28.9847 44.9275 28.9552 44.7156C28.9256 44.5036 28.9475 44.2877 29.0188 44.086C29.1099 43.8228 29.2817 43.595 29.5098 43.4351C29.7378 43.2752 30.0105 43.1913 30.289 43.1954C32.0574 43.1915 33.7522 42.4874 35.0026 41.237C36.253 39.9866 36.9571 38.2918 36.9609 36.5235C36.9569 36.245 37.0408 35.9723 37.2007 35.7442C37.3606 35.5161 37.5883 35.3443 37.8516 35.2532C38.0533 35.1819 38.2692 35.1601 38.4811 35.1896C38.6931 35.2191 38.8948 35.2991 39.0694 35.4228C39.2439 35.5465 39.3862 35.7104 39.4843 35.9006C39.5823 36.0908 39.6333 36.3017 39.6328 36.5157C39.6302 38.9951 38.6441 41.3721 36.8909 43.1253C35.1377 44.8785 32.7606 45.8646 30.2812 45.8672Z" fill="white"/>
</g>
</svg>
