<svg width="51" height="46" viewBox="0 0 51 46" fill="none" xmlns="http://www.w3.org/2000/svg">
<path id="Vector" d="M32.5227 17.8889C34.986 17.8889 36.9852 19.8924 36.9852 22.3611V34.4974C36.9852 37.5481 35.776 40.4738 33.6235 42.631C31.471 44.7881 28.5517 46 25.5077 46C22.4636 46 19.5443 44.7881 17.3918 42.631C15.2393 40.4738 14.0301 37.5481 14.0301 34.4974V22.3611C14.0301 19.8924 16.0267 17.8889 18.4926 17.8889H32.5227ZM13.0841 17.8889C12.1626 18.9948 11.6098 20.3621 11.503 21.7989L11.4775 22.3611V34.4974C11.4775 36.662 11.9671 38.7116 12.8392 40.5413C11.996 40.7713 11.1163 40.8872 10.2 40.8889C8.8603 40.8889 7.53373 40.6244 6.29604 40.1105C5.05835 39.5967 3.9338 38.8435 2.98661 37.894C2.03942 36.9445 1.28815 35.8173 0.775697 34.5768C0.263249 33.3363 -0.000334606 32.0067 3.18779e-07 30.6641V22.3611C4.21505e-05 21.2387 0.421186 20.1574 1.17983 19.3318C1.93848 18.5061 2.97916 17.9966 4.0953 17.9042L4.4625 17.8889H13.0841ZM37.9312 17.8889H46.5375C49.0008 17.8889 51 19.8924 51 22.3611V30.6667C51.0003 32.2336 50.6412 33.7797 49.9504 35.1855C49.2596 36.5912 48.2555 37.8189 47.0158 38.7738C45.7761 39.7287 44.3339 40.3852 42.8007 40.6926C41.2675 40.9999 39.6843 40.9499 38.1735 40.5464C38.9385 38.9416 39.4077 37.1731 39.5123 35.3024L39.5352 34.4974V22.3611C39.5352 20.6617 38.9359 19.1028 37.9312 17.8889ZM25.5 0C27.5289 0 29.4747 0.807736 30.9094 2.24551C32.344 3.68329 33.15 5.63334 33.15 7.66667C33.15 9.69999 32.344 11.65 30.9094 13.0878C29.4747 14.5256 27.5289 15.3333 25.5 15.3333C23.4711 15.3333 21.5253 14.5256 20.0906 13.0878C18.656 11.65 17.85 9.69999 17.85 7.66667C17.85 5.63334 18.656 3.68329 20.0906 2.24551C21.5253 0.807736 23.4711 0 25.5 0ZM42.075 2.55556C43.7658 2.55556 45.3873 3.22867 46.5828 4.42682C47.7784 5.62497 48.45 7.25001 48.45 8.94444C48.45 10.6389 47.7784 12.2639 46.5828 13.4621C45.3873 14.6602 43.7658 15.3333 42.075 15.3333C40.3842 15.3333 38.7627 14.6602 37.5672 13.4621C36.3717 12.2639 35.7 10.6389 35.7 8.94444C35.7 7.25001 36.3717 5.62497 37.5672 4.42682C38.7627 3.22867 40.3842 2.55556 42.075 2.55556ZM8.925 2.55556C10.6158 2.55556 12.2373 3.22867 13.4328 4.42682C14.6284 5.62497 15.3 7.25001 15.3 8.94444C15.3 10.6389 14.6284 12.2639 13.4328 13.4621C12.2373 14.6602 10.6158 15.3333 8.925 15.3333C7.23425 15.3333 5.61274 14.6602 4.41719 13.4621C3.22165 12.2639 2.55 10.6389 2.55 8.94444C2.55 7.25001 3.22165 5.62497 4.41719 4.42682C5.61274 3.22867 7.23425 2.55556 8.925 2.55556Z" fill="white"/>
</svg>
