<svg width="47" height="50" viewBox="0 0 47 50" fill="none" xmlns="http://www.w3.org/2000/svg">
<path id="Vector" d="M41.0424 8.41797C36.7463 3.26172 30.4949 0 23.5 0C10.5199 0 0 11.1914 0 25H5.875C5.875 14.6387 13.7604 6.25 23.5 6.25C28.8701 6.25 33.6344 8.83789 36.8564 12.8711L31.3303 18.75H47V2.08008L41.0424 8.41797ZM23.5 43.75C18.1299 43.75 13.3656 41.1621 10.1436 37.1289L15.6697 31.25H0V47.9199L5.95762 41.582C10.2537 46.7383 16.5143 50 23.5 50C36.4801 50 47 38.8086 47 25H41.125C41.125 35.3613 33.2396 43.75 23.5 43.75Z" fill="white"/>
</svg>
