<svg width="34" height="46" viewBox="0 0 34 46" fill="none" xmlns="http://www.w3.org/2000/svg">
<path id="Vector" d="M17 2.30336e-08C12.5206 -0.000242396 8.22217 1.91304 5.03889 5.324C1.85562 8.73497 0.0447938 13.3679 0 18.2159C0 30.8199 14.9813 44.8499 15.6188 45.4479C16.0037 45.8042 16.4935 46 17 46C17.5065 46 17.9963 45.8042 18.3812 45.4479C19.125 44.8499 34 30.8199 34 18.2159C33.9552 13.3679 32.1444 8.73497 28.9611 5.324C25.7778 1.91304 21.4794 -0.000242396 17 2.30336e-08ZM17 25.2999C15.529 25.2999 14.091 24.8278 12.8679 23.9433C11.6449 23.0587 10.6916 21.8015 10.1286 20.3305C9.56572 18.8596 9.41843 17.241 9.70541 15.6795C9.99239 14.1179 10.7007 12.6836 11.7409 11.5578C12.781 10.4319 14.1063 9.66526 15.549 9.35465C16.9917 9.04404 18.4872 9.20345 19.8462 9.81274C21.2052 10.422 22.3668 11.4538 23.1841 12.7776C24.0013 14.1014 24.4375 15.6578 24.4375 17.2499C24.4375 19.3849 23.6539 21.4325 22.2591 22.9421C20.8643 24.4518 18.9725 25.2999 17 25.2999Z" fill="white"/>
</svg>
