<svg width="32" height="32" viewBox="0 0 32 32" fill="none" xmlns="http://www.w3.org/2000/svg">
<g id="Group">
<path id="Vector" d="M16 0C7.168 0 0 7.168 0 16C0 24.832 7.168 32 16 32C24.832 32 32 24.832 32 16C32 7.168 24.832 0 16 0ZM17.408 25.216V27.2H14.608V25.136C13.424 24.848 10.784 23.904 9.776 20.4L12.416 19.328C12.512 19.68 13.344 22.672 16.256 22.672C17.744 22.672 19.424 21.904 19.424 20.096C19.424 18.56 18.304 17.76 15.776 16.848C14.016 16.224 10.416 15.2 10.416 11.552C10.416 11.392 10.432 7.712 14.608 6.816V4.8H17.408V6.784C20.352 7.296 21.424 9.648 21.664 10.352L19.136 11.424C18.96 10.864 18.192 9.28 16.096 9.28C14.976 9.28 13.2 9.872 13.2 11.504C13.2 13.024 14.576 13.6 17.424 14.544C21.264 15.872 22.24 17.824 22.24 20.064C22.24 24.272 18.24 25.072 17.408 25.216Z" fill="white"/>
</g>
</svg>
