<svg width="40" height="28" viewBox="0 0 40 28" fill="none" xmlns="http://www.w3.org/2000/svg">
<path id="Vector" d="M28.6249 14.0002C31.2699 14.0002 33.3974 11.8535 33.3974 9.2085C33.3974 6.5635 31.2699 4.41683 28.6249 4.41683C25.9799 4.41683 23.8333 6.5635 23.8333 9.2085C23.8333 11.8535 25.9799 14.0002 28.6249 14.0002ZM14.2499 12.0835C17.4316 12.0835 19.9808 9.51516 19.9808 6.3335C19.9808 3.15183 17.4316 0.583496 14.2499 0.583496C11.0683 0.583496 8.49992 3.15183 8.49992 6.3335C8.49992 9.51516 11.0683 12.0835 14.2499 12.0835ZM28.6249 17.8335C25.1174 17.8335 18.0833 19.5968 18.0833 23.1043V27.4168H39.1666V23.1043C39.1666 19.5968 32.1324 17.8335 28.6249 17.8335ZM14.2499 15.9168C9.78409 15.9168 0.833252 18.1593 0.833252 22.6252V27.4168H14.2499V23.1043C14.2499 21.4752 14.8824 18.6193 18.7924 16.4535C17.1249 16.1085 15.5149 15.9168 14.2499 15.9168Z" fill="white"/>
</svg>
