<svg width="47" height="47" viewBox="0 0 47 47" fill="none" xmlns="http://www.w3.org/2000/svg">
<path fill-rule="evenodd" clip-rule="evenodd" d="M0.00394401 44.3852C-0.0771197 45.8273 1.10223 47 2.54568 47H20.8504C22.2952 47 23.451 45.8246 23.6105 44.3891C24.2027 39.082 26.5823 34.1341 30.3585 30.3581C34.1347 26.5821 39.0829 24.2026 44.3903 23.6105C45.8259 23.4523 47 22.2952 47 20.8519V2.54685C47 1.10217 45.8285 -0.0771155 44.3863 0.00394375C32.8246 0.647039 21.9056 5.52921 13.7176 13.7168C5.52952 21.9044 0.647075 32.8241 0.00394401 44.3852ZM40.4796 12.5315C41.4365 12.3197 42.4018 12.1479 43.3731 12.0164L43.0213 9.42512C41.9782 9.56624 40.9413 9.75075 39.9135 9.97815L40.4796 12.5315ZM29.6288 16.9205C31.2999 15.8939 33.0536 15.0083 34.8718 14.273L33.8912 11.8491C31.9384 12.6389 30.0547 13.59 28.2599 14.6927L29.6288 16.9205ZM22.7672 22.4234C23.4492 21.7199 24.1602 21.0451 24.8984 20.4008L23.179 18.4305C21.5923 19.8152 20.1237 21.3296 18.7885 22.9581L20.8112 24.6159C21.4325 23.8582 22.085 23.1267 22.7672 22.4234ZM14.9929 34.7718C15.6717 32.9322 16.5027 31.1523 17.4771 29.4507L15.2086 28.1511C14.1619 29.979 13.2693 31.891 12.5401 33.8671L14.9929 34.7718ZM12.999 43.3393C13.1018 42.3613 13.2435 41.3921 13.4239 40.4316L10.8547 39.9452C10.6595 40.9763 10.5069 42.017 10.3971 43.0673L12.999 43.3393Z" fill="white"/>
</svg>
