<svg width="49" height="49" viewBox="0 0 49 49" fill="none" xmlns="http://www.w3.org/2000/svg">
<path d="M4.9 49C3.5525 49 2.39937 48.5206 1.4406 47.5618C0.481833 46.6031 0.00163333 45.4491 0 44.1V14.7C0 13.3525 0.4802 12.1994 1.4406 11.2406C2.401 10.2818 3.55413 9.80163 4.9 9.8H14.7L24.5 0L34.3 9.8H44.1C45.4475 9.8 46.6014 10.2802 47.5618 11.2406C48.5222 12.201 49.0016 13.3541 49 14.7V44.1C49 45.4475 48.5206 46.6014 47.5618 47.5618C46.6031 48.5222 45.4491 49.0016 44.1 49H4.9ZM9.8 39.2H39.2L30.0125 26.95L22.6625 36.75L17.15 29.4L9.8 39.2ZM37.975 26.95C38.9958 26.95 39.8639 26.5931 40.5793 25.8793C41.2947 25.1656 41.6516 24.2975 41.65 23.275C41.6484 22.2525 41.2915 21.3852 40.5793 20.6731C39.8672 19.961 38.9991 19.6033 37.975 19.6C36.9509 19.5967 36.0836 19.9544 35.3731 20.6731C34.6626 21.3918 34.3049 22.2591 34.3 23.275C34.2951 24.2909 34.6528 25.159 35.3731 25.8793C36.0934 26.5996 36.9607 26.9565 37.975 26.95ZM19.845 9.8H29.155L24.5 5.145L19.845 9.8Z" fill="white"/>
</svg>
