<svg width="55" height="47" viewBox="0 0 55 47" fill="none" xmlns="http://www.w3.org/2000/svg">
<path d="M35.5208 9.17073C38.0417 9.17073 40.1042 7.10732 40.1042 4.58537C40.1042 2.06341 38.0417 0 35.5208 0C33 0 30.9375 2.06341 30.9375 4.58537C30.9375 7.10732 33 9.17073 35.5208 9.17073ZM11.4583 24.0732C5.04167 24.0732 0 29.1171 0 35.5366C0 41.9561 5.04167 47 11.4583 47C17.875 47 22.9167 41.9561 22.9167 35.5366C22.9167 29.1171 17.875 24.0732 11.4583 24.0732ZM11.4583 43.561C7.10417 43.561 3.4375 39.8927 3.4375 35.5366C3.4375 31.1805 7.10417 27.5122 11.4583 27.5122C15.8125 27.5122 19.4792 31.1805 19.4792 35.5366C19.4792 39.8927 15.8125 43.561 11.4583 43.561ZM24.75 20.6341L30.25 15.1317L32.0833 16.9659C35.0625 19.9463 38.9583 21.7805 43.7708 21.7805V17.1951C40.3333 17.1951 37.5833 15.8195 35.5208 13.7561L31.1667 9.4C30.0208 8.48293 28.875 8.02439 27.5 8.02439C26.125 8.02439 24.9792 8.48293 24.2917 9.4L17.875 15.8195C16.9583 16.7366 16.5 17.8829 16.5 19.0293C16.5 20.4049 16.9583 21.5512 17.875 22.239L25.2083 28.6585V40.122H29.7917V25.9073L24.75 20.6341ZM43.5417 24.0732C37.125 24.0732 32.0833 29.1171 32.0833 35.5366C32.0833 41.9561 37.125 47 43.5417 47C49.9583 47 55 41.9561 55 35.5366C55 29.1171 49.9583 24.0732 43.5417 24.0732ZM43.5417 43.561C39.1875 43.561 35.5208 39.8927 35.5208 35.5366C35.5208 31.1805 39.1875 27.5122 43.5417 27.5122C47.8958 27.5122 51.5625 31.1805 51.5625 35.5366C51.5625 39.8927 47.8958 43.561 43.5417 43.561Z" fill="white"/>
</svg>
