<svg width="51" height="51" viewBox="0 0 51 51" fill="none" xmlns="http://www.w3.org/2000/svg">
<path d="M47.8125 15.1408V11.1559C47.8126 10.9466 47.7715 10.7393 47.6914 10.5459C47.6114 10.3525 47.494 10.1767 47.346 10.0287C47.1979 9.88069 47.0222 9.7633 46.8288 9.68324C46.6354 9.60319 46.4281 9.56204 46.2188 9.56215H43.8277V0.796882C43.8277 0.585535 43.7437 0.382846 43.5943 0.233401C43.4449 0.0839569 43.2422 0 43.0308 0C42.8195 0 42.6168 0.0839569 42.4674 0.233401C42.3179 0.382846 42.234 0.585535 42.234 0.796882V6.00912C41.6141 5.44929 40.8577 5.06261 40.0408 4.88803C39.224 4.71344 38.3756 4.7571 37.5811 5.01462C37.0596 4.44163 36.4246 3.98335 35.7165 3.66888C35.0084 3.35442 34.2427 3.19064 33.4679 3.18795C32.4112 3.18461 31.3756 3.48367 30.4834 4.04983C29.5911 4.61599 28.8795 5.42562 28.4325 6.38313C27.4222 6.44891 26.4747 6.8963 25.782 7.63463C25.0893 8.37297 24.7032 9.34704 24.7019 10.3595C24.703 11.416 25.1232 12.4289 25.8702 13.1759C26.6173 13.923 27.6302 14.3432 28.6867 14.3443H38.25V15.1416C37.4054 15.1441 36.5961 15.4807 35.9988 16.0779C35.4016 16.6752 35.065 17.4845 35.0625 18.3291V23.9077H28.6875C27.2731 23.9077 26.2965 24.6124 26.2965 26.0897V16.9861C26.2965 16.097 25.789 14.8568 25.1694 14.2295L19.4548 8.43929C19.1685 8.14964 18.7812 7.98196 18.374 7.97135C17.9668 7.96073 17.5714 8.108 17.2703 8.38235C16.1882 7.59514 14.8846 7.17109 13.5465 7.17108C11.9252 7.17452 10.3658 7.79407 9.18425 8.90425C8.78542 8.81168 8.37733 8.76491 7.9679 8.76485C6.88247 8.76748 5.82121 9.08561 4.91331 9.68052C4.00542 10.2754 3.29005 11.1214 2.8543 12.1156C2.03054 12.3604 1.3078 12.8646 0.793544 13.5532C0.279288 14.2417 0.000979642 15.0778 0 15.9372C0.001125 16.9937 0.421312 18.0066 1.16836 18.7537C1.91541 19.5007 2.92831 19.9209 3.9848 19.922H10.3598V27.0944H3.1875C2.34288 27.0969 1.53356 27.4335 0.936322 28.0307C0.339084 28.628 0.00246671 29.4373 0 30.2819V51H27.8911V28.661C27.8911 28.2377 28.1792 27.8909 28.5294 27.8909H28.8482C29.1984 27.8909 29.4848 28.2377 29.4848 28.661V51H31.875V28.661C31.875 28.2377 32.1632 27.8909 32.5134 27.8909H32.8321C33.1823 27.8909 33.4688 28.2377 33.4688 28.661V51H51V18.3283C50.9978 17.4836 50.6612 16.6741 50.0639 16.0768C49.4666 15.4795 48.6572 15.143 47.8125 15.1408ZM7.5701 46.2187C7.56965 46.43 7.48551 46.6326 7.33608 46.782C7.18666 46.9314 6.98412 47.0156 6.7728 47.016H4.3826C4.17142 47.0151 3.96914 46.9308 3.81981 46.7815C3.67048 46.6322 3.58619 46.4299 3.5853 46.2187V44.6249C3.58575 44.4136 3.66989 44.2111 3.81932 44.0617C3.96875 43.9122 4.17128 43.8281 4.3826 43.8276H6.77365C6.98497 43.8281 7.1875 43.9122 7.33693 44.0617C7.48636 44.2111 7.5705 44.4136 7.57095 44.6249L7.5701 46.2187ZM7.5701 39.8437C7.56965 40.055 7.48551 40.2575 7.33608 40.4069C7.18666 40.5564 6.98412 40.6405 6.7728 40.641H4.3826C4.17142 40.6401 3.96914 40.5558 3.81981 40.4064C3.67048 40.2571 3.58619 40.0548 3.5853 39.8437V38.2499C3.58575 38.0386 3.66989 37.836 3.81932 37.6866C3.96875 37.5372 4.17128 37.453 4.3826 37.4526H6.77365C6.98497 37.453 7.1875 37.5372 7.33693 37.6866C7.48636 37.836 7.5705 38.0386 7.57095 38.2499L7.5701 39.8437ZM7.5701 33.4686C7.56965 33.6799 7.48551 33.8825 7.33608 34.0319C7.18666 34.1813 6.98412 34.2655 6.7728 34.2659H4.3826C4.17142 34.265 3.96914 34.1807 3.81981 34.0314C3.67048 33.8821 3.58619 33.6798 3.5853 33.4686V31.8748C3.58575 31.6635 3.66989 31.461 3.81932 31.3116C3.96875 31.1621 4.17128 31.078 4.3826 31.0775H6.77365C6.98497 31.078 7.1875 31.1621 7.33693 31.3116C7.48636 31.461 7.5705 31.6635 7.57095 31.8748L7.5701 33.4686ZM3.9848 18.3283C3.36169 18.3117 2.76968 18.0525 2.33484 17.6059C1.89999 17.1593 1.65666 16.5605 1.65666 15.9372C1.65666 15.3139 1.89999 14.7152 2.33484 14.2686C2.76968 13.822 3.36169 13.5628 3.9848 13.5461H4.0664C4.24983 12.6463 4.73855 11.8375 5.44984 11.2566C6.16112 10.6758 7.05127 10.3585 7.9696 10.3586C8.5816 10.3586 9.1545 10.5082 9.67215 10.7539C10.1139 10.1385 10.6959 9.63709 11.3699 9.29121C12.0439 8.94534 12.7906 8.76491 13.5482 8.76485C14.501 8.76485 15.385 9.0462 16.1304 9.52645L11.4878 14.2295C10.8681 14.8568 10.3607 16.097 10.3607 16.9861V18.3274L3.9848 18.3283ZM23.9062 46.2187C23.9058 46.43 23.8217 46.6326 23.6722 46.782C23.5228 46.9314 23.3203 47.0156 23.109 47.016H13.5465C13.3353 47.0151 13.133 46.9308 12.9837 46.7815C12.8343 46.6322 12.75 46.4299 12.7492 46.2187V44.6249C12.7496 44.4136 12.8337 44.2111 12.9832 44.0617C13.1326 43.9122 13.3351 43.8281 13.5465 43.8276H23.109C23.3203 43.8281 23.5228 43.9122 23.6722 44.0617C23.8217 44.2111 23.9058 44.4136 23.9062 44.6249V46.2187ZM23.9062 39.8437C23.9058 40.055 23.8217 40.2575 23.6722 40.4069C23.5228 40.5564 23.3203 40.6405 23.109 40.641H13.5465C13.3353 40.6401 13.133 40.5558 12.9837 40.4064C12.8343 40.2571 12.75 40.0548 12.7492 39.8437V38.2499C12.7496 38.0386 12.8337 37.836 12.9832 37.6866C13.1326 37.5372 13.3351 37.453 13.5465 37.4526H23.109C23.3203 37.453 23.5228 37.5372 23.6722 37.6866C23.8217 37.836 23.9058 38.0386 23.9062 38.2499V39.8437ZM23.9062 33.4686C23.9058 33.6799 23.8217 33.8825 23.6722 34.0319C23.5228 34.1813 23.3203 34.2655 23.109 34.2659H13.5465C13.3353 34.265 13.133 34.1807 12.9837 34.0314C12.8343 33.8821 12.75 33.6798 12.7492 33.4686V31.8748C12.7496 31.6635 12.8337 31.461 12.9832 31.3116C13.1326 31.1621 13.3351 31.078 13.5465 31.0775H23.109C23.3203 31.078 23.5228 31.1621 23.6722 31.3116C23.8217 31.461 23.9058 31.6635 23.9062 31.8748V33.4686ZM23.9062 27.0935C23.9058 27.3049 23.8217 27.5074 23.6722 27.6568C23.5228 27.8063 23.3203 27.8904 23.109 27.8909H13.5465C13.3353 27.89 13.133 27.8057 12.9837 27.6563C12.8343 27.507 12.75 27.3047 12.7492 27.0935V25.4998C12.7496 25.2885 12.8337 25.0859 12.9832 24.9365C13.1326 24.7871 13.3351 24.7029 13.5465 24.7025H23.109C23.3203 24.7029 23.5228 24.7871 23.6722 24.9365C23.8217 25.0859 23.9058 25.2885 23.9062 25.4998V27.0935ZM23.9062 20.7185C23.9058 20.9298 23.8217 21.1324 23.6722 21.2818C23.5228 21.4312 23.3203 21.5154 23.109 21.5158H13.5465C13.3353 21.5149 13.133 21.4306 12.9837 21.2813C12.8343 21.132 12.75 20.9297 12.7492 20.7185V19.1247C12.7496 18.9134 12.8337 18.7109 12.9832 18.5614C13.1326 18.412 13.3351 18.3279 13.5465 18.3274H23.109C23.3203 18.3279 23.5228 18.412 23.6722 18.5614C23.8217 18.7109 23.9058 18.9134 23.9062 19.1247V20.7185ZM28.6875 12.7497C28.0644 12.7331 27.4724 12.4739 27.0375 12.0273C26.6027 11.5807 26.3594 10.9819 26.3594 10.3586C26.3594 9.73528 26.6027 9.13656 27.0375 8.68996C27.4724 8.24336 28.0644 7.98416 28.6875 7.96754C28.9927 7.96754 29.28 8.02959 29.5486 8.13414C29.8512 6.23523 31.4857 4.78001 33.4688 4.78001C34.2255 4.78105 34.9662 4.99804 35.6038 5.40548C36.2415 5.81292 36.7496 6.39389 37.0685 7.08013C37.6282 6.62595 38.3265 6.37699 39.0473 6.37463C39.8927 6.37463 40.7034 6.71046 41.3012 7.30823C41.899 7.90601 42.2348 8.71677 42.2348 9.56215H39.8438C39.4211 9.56238 39.0159 9.73037 38.717 10.0292C38.4182 10.328 38.2502 10.7333 38.25 11.1559V12.7497H28.6875ZM41.8362 47.8125C41.8357 48.0238 41.7516 48.2263 41.6021 48.3758C41.4527 48.5252 41.2502 48.6093 41.0388 48.6098H38.6478C38.4366 48.6089 38.2343 48.5246 38.085 48.3753C37.9357 48.2259 37.8514 48.0237 37.8505 47.8125V46.2187C37.8509 46.0074 37.9351 45.8049 38.0845 45.6554C38.2339 45.506 38.4365 45.4219 38.6478 45.4214H41.0388C41.2502 45.4219 41.4527 45.506 41.6021 45.6554C41.7516 45.8049 41.8357 46.0074 41.8362 46.2187V47.8125ZM41.8362 42.2347C41.8357 42.446 41.7516 42.6486 41.6021 42.798C41.4527 42.9474 41.2502 43.0316 41.0388 43.032H38.6478C38.4366 43.0311 38.2343 42.9468 38.085 42.7975C37.9357 42.6482 37.8514 42.4459 37.8505 42.2347V40.641C37.8509 40.4296 37.9351 40.2271 38.0845 40.0777C38.2339 39.9283 38.4365 39.8441 38.6478 39.8437H41.0388C41.2502 39.8441 41.4527 39.9283 41.6021 40.0777C41.7516 40.2271 41.8357 40.4296 41.8362 40.641V42.2347ZM41.8362 36.6561C41.8357 36.8675 41.7516 37.07 41.6021 37.2194C41.4527 37.3688 41.2502 37.453 41.0388 37.4534H38.6478C38.4366 37.4525 38.2343 37.3683 38.085 37.2189C37.9357 37.0696 37.8514 36.8673 37.8505 36.6561V35.0624C37.8509 34.851 37.9351 34.6485 38.0845 34.4991C38.2339 34.3497 38.4365 34.2655 38.6478 34.2651H41.0388C41.2502 34.2655 41.4527 34.3497 41.6021 34.4991C41.7516 34.6485 41.8357 34.851 41.8362 35.0624V36.6561ZM41.8362 31.0784C41.8357 31.2897 41.7516 31.4922 41.6021 31.6417C41.4527 31.7911 41.2502 31.8752 41.0388 31.8757H38.6478C38.4366 31.8748 38.2343 31.7905 38.085 31.6412C37.9357 31.4918 37.8514 31.2896 37.8505 31.0784V29.4846C37.8509 29.2733 37.9351 29.0708 38.0845 28.9213C38.2339 28.7719 38.4365 28.6878 38.6478 28.6873H41.0388C41.2502 28.6878 41.4527 28.7719 41.6021 28.9213C41.7516 29.0708 41.8357 29.2733 41.8362 29.4846V31.0784ZM41.8362 25.4998C41.8357 25.7111 41.7516 25.9136 41.6021 26.0631C41.4527 26.2125 41.2502 26.2966 41.0388 26.2971H38.6478C38.4366 26.2962 38.2343 26.2119 38.085 26.0626C37.9357 25.9132 37.8514 25.711 37.8505 25.4998V23.906C37.8509 23.6947 37.9351 23.4922 38.0845 23.3427C38.2339 23.1933 38.4365 23.1092 38.6478 23.1087H41.0388C41.2502 23.1092 41.4527 23.1933 41.6021 23.3427C41.7516 23.4922 41.8357 23.6947 41.8362 23.906V25.4998ZM41.8362 19.922C41.8357 20.1334 41.7516 20.3359 41.6021 20.4853C41.4527 20.6348 41.2502 20.7189 41.0388 20.7193H38.6478C38.4366 20.7185 38.2343 20.6342 38.085 20.4848C37.9357 20.3355 37.8514 20.1332 37.8505 19.922V18.3283C37.8509 18.117 37.9351 17.9144 38.0845 17.765C38.2339 17.6156 38.4365 17.5314 38.6478 17.531H41.0388C41.2502 17.5314 41.4527 17.6156 41.6021 17.765C41.7516 17.9144 41.8357 18.117 41.8362 18.3283V19.922ZM48.2112 47.8125C48.2107 48.0238 48.1266 48.2263 47.9771 48.3758C47.8277 48.5252 47.6252 48.6093 47.4138 48.6098H45.0228C44.8116 48.6089 44.6093 48.5246 44.46 48.3753C44.3107 48.2259 44.2264 48.0237 44.2255 47.8125V46.2187C44.2259 46.0074 44.3101 45.8049 44.4595 45.6554C44.6089 45.506 44.8115 45.4219 45.0228 45.4214H47.4138C47.6252 45.4219 47.8277 45.506 47.9771 45.6554C48.1266 45.8049 48.2107 46.0074 48.2112 46.2187V47.8125ZM48.2112 42.2347C48.2107 42.446 48.1266 42.6486 47.9771 42.798C47.8277 42.9474 47.6252 43.0316 47.4138 43.032H45.0228C44.8116 43.0311 44.6093 42.9468 44.46 42.7975C44.3107 42.6482 44.2264 42.4459 44.2255 42.2347V40.641C44.2259 40.4296 44.3101 40.2271 44.4595 40.0777C44.6089 39.9283 44.8115 39.8441 45.0228 39.8437H47.4138C47.6252 39.8441 47.8277 39.9283 47.9771 40.0777C48.1266 40.2271 48.2107 40.4296 48.2112 40.641V42.2347ZM48.2112 36.6561C48.2107 36.8675 48.1266 37.07 47.9771 37.2194C47.8277 37.3688 47.6252 37.453 47.4138 37.4534H45.0228C44.8116 37.4525 44.6093 37.3683 44.46 37.2189C44.3107 37.0696 44.2264 36.8673 44.2255 36.6561V35.0624C44.2259 34.851 44.3101 34.6485 44.4595 34.4991C44.6089 34.3497 44.8115 34.2655 45.0228 34.2651H47.4138C47.6252 34.2655 47.8277 34.3497 47.9771 34.4991C48.1266 34.6485 48.2107 34.851 48.2112 35.0624V36.6561ZM48.2112 31.0784C48.2107 31.2897 48.1266 31.4922 47.9771 31.6417C47.8277 31.7911 47.6252 31.8752 47.4138 31.8757H45.0228C44.8116 31.8748 44.6093 31.7905 44.46 31.6412C44.3107 31.4918 44.2264 31.2896 44.2255 31.0784V29.4846C44.2259 29.2733 44.3101 29.0708 44.4595 28.9213C44.6089 28.7719 44.8115 28.6878 45.0228 28.6873H47.4138C47.6252 28.6878 47.8277 28.7719 47.9771 28.9213C48.1266 29.0708 48.2107 29.2733 48.2112 29.4846V31.0784ZM48.2112 25.4998C48.2107 25.7111 48.1266 25.9136 47.9771 26.0631C47.8277 26.2125 47.6252 26.2966 47.4138 26.2971H45.0228C44.8116 26.2962 44.6093 26.2119 44.46 26.0626C44.3107 25.9132 44.2264 25.711 44.2255 25.4998V23.906C44.2259 23.6947 44.3101 23.4922 44.4595 23.3427C44.6089 23.1933 44.8115 23.1092 45.0228 23.1087H47.4138C47.6252 23.1092 47.8277 23.1933 47.9771 23.3427C48.1266 23.4922 48.2107 23.6947 48.2112 23.906V25.4998ZM48.2112 19.922C48.2107 20.1334 48.1266 20.3359 47.9771 20.4853C47.8277 20.6348 47.6252 20.7189 47.4138 20.7193H45.0228C44.8116 20.7185 44.6093 20.6342 44.46 20.4848C44.3107 20.3355 44.2264 20.1332 44.2255 19.922V18.3283C44.2259 18.117 44.3101 17.9144 44.4595 17.765C44.6089 17.6156 44.8115 17.5314 45.0228 17.531H47.4138C47.6252 17.5314 47.8277 17.6156 47.9771 17.765C48.1266 17.9144 48.2107 18.117 48.2112 18.3283V19.922Z" fill="white"/>
</svg>
