<svg width="54" height="54" viewBox="0 0 54 54" fill="none" xmlns="http://www.w3.org/2000/svg">
<path fill-rule="evenodd" clip-rule="evenodd" d="M11.25 4.49951C10.0565 4.49951 8.91193 4.97362 8.06802 5.81753C7.22411 6.66144 6.75 7.80604 6.75 8.99951V47.0245C6.75 47.3495 6.81402 47.6714 6.9384 47.9717C7.06278 48.2719 7.24509 48.5448 7.47491 48.7746C7.70474 49.0044 7.97758 49.1867 8.27786 49.3111C8.57814 49.4355 8.89998 49.4995 9.225 49.4995H44.775C45.1 49.4995 45.4219 49.4355 45.7221 49.3111C46.0224 49.1867 46.2953 49.0044 46.5251 48.7746C46.7549 48.5448 46.9372 48.2719 47.0616 47.9717C47.186 47.6714 47.25 47.3495 47.25 47.0245V24.7495C47.25 23.556 46.7759 22.4114 45.932 21.5675C45.0881 20.7236 43.9435 20.2495 42.75 20.2495H41.625C41.3266 20.2495 41.0405 20.368 40.8295 20.579C40.6185 20.79 40.5 21.0761 40.5 21.3745V44.9995H38.25V8.99951C38.25 7.80604 37.7759 6.66144 36.932 5.81753C36.0881 4.97362 34.9435 4.49951 33.75 4.49951H11.25ZM22.5 11.2495C21.9033 11.2495 21.331 11.4866 20.909 11.9085C20.4871 12.3305 20.25 12.9028 20.25 13.4995V15.7495H18C17.4033 15.7495 16.831 15.9866 16.409 16.4085C15.9871 16.8305 15.75 17.4028 15.75 17.9995C15.75 18.5962 15.9871 19.1685 16.409 19.5905C16.831 20.0125 17.4033 20.2495 18 20.2495H20.25V22.4995C20.25 23.0962 20.4871 23.6685 20.909 24.0905C21.331 24.5125 21.9033 24.7495 22.5 24.7495C23.0967 24.7495 23.669 24.5125 24.091 24.0905C24.5129 23.6685 24.75 23.0962 24.75 22.4995V20.2495H27C27.5967 20.2495 28.169 20.0125 28.591 19.5905C29.0129 19.1685 29.25 18.5962 29.25 17.9995C29.25 17.4028 29.0129 16.8305 28.591 16.4085C28.169 15.9866 27.5967 15.7495 27 15.7495H24.75V13.4995C24.75 12.9028 24.5129 12.3305 24.091 11.9085C23.669 11.4866 23.0967 11.2495 22.5 11.2495ZM22.5 31.4995C21.3065 31.4995 20.1619 31.9736 19.318 32.8175C18.4741 33.6614 18 34.806 18 35.9995V44.9995H27V35.9995C27 34.806 26.5259 33.6614 25.682 32.8175C24.8381 31.9736 23.6935 31.4995 22.5 31.4995Z" fill="white"/>
</svg>
