<svg width="58" height="49" viewBox="0 0 58 49" fill="none" xmlns="http://www.w3.org/2000/svg">
<path d="M29 49C28.5167 49 28.0448 48.9333 27.5843 48.7999C27.122 48.6665 26.6932 48.4887 26.2977 48.2663C24.4962 47.1547 22.6068 46.3099 20.6295 45.7319C18.6523 45.1538 16.6091 44.8648 14.5 44.8648C12.6545 44.8648 10.8425 45.1093 9.06382 45.5985C7.28339 46.0876 5.5803 46.7768 3.95455 47.6661C3.03182 48.1552 2.14249 48.1329 1.28655 47.5994C0.428849 47.0658 0 46.2877 0 45.265V13.1171C0 12.6279 0.121273 12.1611 0.363818 11.7164C0.604606 11.2718 0.966667 10.9383 1.45 10.716C3.47121 9.64882 5.5803 8.84846 7.77727 8.31488C9.97424 7.78131 12.2152 7.51452 14.5 7.51452C17.0485 7.51452 19.5425 7.848 21.982 8.51497C24.4198 9.18194 26.7591 10.1824 29 11.5163V43.7976C31.2409 42.3748 33.5917 41.3076 36.0523 40.5962C38.5129 39.8848 40.9955 39.529 43.5 39.529C45.0818 39.529 46.6311 39.6624 48.1479 39.9292C49.6629 40.196 51.1894 40.5962 52.7273 41.1298V9.11524C53.3864 9.33757 54.0349 9.57056 54.6729 9.81423C55.3092 10.0597 55.9349 10.3603 56.55 10.716C57.0333 10.9383 57.3963 11.2718 57.6388 11.7164C57.8796 12.1611 58 12.6279 58 13.1171V45.265C58 46.2877 57.572 47.0658 56.7161 47.5994C55.8584 48.1329 54.9682 48.1552 54.0455 47.6661C52.4197 46.7768 50.7166 46.0876 48.9362 45.5985C47.1575 45.1093 45.3455 44.8648 43.5 44.8648C41.3909 44.8648 39.3477 45.1538 37.3705 45.7319C35.3932 46.3099 33.5038 47.1547 31.7023 48.2663C31.3068 48.4887 30.8789 48.6665 30.4184 48.7999C29.9561 48.9333 29.4833 49 29 49ZM36.4477 34.8603C36.0083 35.2604 35.5364 35.3378 35.032 35.0924C34.5258 34.8487 34.2727 34.4378 34.2727 33.8598V12.0499C34.2727 11.961 34.4045 11.6497 34.6682 11.1162L45.2136 0.444646C45.653 0 46.1364 -0.111162 46.6636 0.111162C47.1909 0.333485 47.4545 0.755898 47.4545 1.3784V24.2554C47.4545 24.4333 47.3008 24.7668 46.9932 25.2559L36.4477 34.8603Z" fill="white"/>
</svg>
