<svg width="64" height="48" viewBox="0 0 64 48" fill="none" xmlns="http://www.w3.org/2000/svg">
<path d="M15.4761 26.9099C18.2688 26.9697 20.8579 28.4033 22.6033 30.9121C24.727 33.9883 28.247 35.8401 31.9997 35.8401C35.7524 35.8401 39.2724 33.9883 41.3961 30.8822C43.1415 28.3734 45.7306 26.9398 48.5233 26.8801C46.4288 23.2363 38.0506 20.9067 31.9997 20.9067C25.9779 20.9067 17.5706 23.2363 15.4761 26.9099Z" fill="white"/>
<path d="M8.72727 26.88C13.5564 26.88 17.4545 22.8778 17.4545 17.92C17.4545 12.9621 13.5564 8.95996 8.72727 8.95996C3.89818 8.95996 0 12.9621 0 17.92C0 22.8778 3.89818 26.88 8.72727 26.88Z" fill="white"/>
<path d="M55.2727 26.88C60.1018 26.88 64 22.8778 64 17.92C64 12.9621 60.1018 8.95996 55.2727 8.95996C50.4436 8.95996 46.5454 12.9621 46.5454 17.92C46.5454 22.8778 50.4436 26.88 55.2727 26.88Z" fill="white"/>
<path d="M32.0002 17.92C36.8293 17.92 40.7275 13.9179 40.7275 8.96C40.7275 4.00213 36.8293 0 32.0002 0C27.1711 0 23.2729 4.00213 23.2729 8.96C23.2729 13.9179 27.1711 17.92 32.0002 17.92Z" fill="white"/>
<path d="M58.1818 29.8667H48.6691C46.4291 29.8667 44.7418 31.2107 43.7818 32.6144C43.6655 32.7936 39.8255 38.8267 32 38.8267C27.84 38.8267 23.1855 36.9152 20.2182 32.6144C19.0836 30.9718 17.3091 29.8667 15.3309 29.8667H5.81818C2.61818 29.8667 0 32.5547 0 35.84V47.7867H20.3636V41.0368C23.7091 43.4262 27.7527 44.8 32 44.8C36.2473 44.8 40.2909 43.4262 43.6364 41.0368V47.7867H64V35.84C64 32.5547 61.3818 29.8667 58.1818 29.8667Z" fill="white"/>
</svg>
