<svg width="59" height="59" viewBox="0 0 59 59" fill="none" xmlns="http://www.w3.org/2000/svg">
<path d="M29.5074 51.625C26.4492 51.625 23.573 51.0448 20.8786 49.8845C18.1859 48.7225 15.8431 47.1459 13.8502 45.1547C11.8574 43.1634 10.2799 40.8231 9.11796 38.1337C7.95599 35.4443 7.375 32.5688 7.375 29.5074C7.375 26.4459 7.95599 23.5697 9.11796 20.8786C10.2783 18.1859 11.8524 15.8431 13.8404 13.8502C15.8284 11.8574 18.1695 10.2799 20.8639 9.11796C23.5582 7.95599 26.4345 7.375 29.4926 7.375C32.5508 7.375 35.427 7.95599 38.1214 9.11796C40.8141 10.2783 43.1569 11.8533 45.1497 13.8429C47.1426 15.8325 48.7201 18.1736 49.882 20.8663C51.044 23.559 51.625 26.4345 51.625 29.4926C51.625 32.5508 51.0448 35.427 49.8845 38.1214C48.7242 40.8157 47.1476 43.1585 45.1547 45.1497C43.1618 47.141 40.8214 48.7184 38.1337 49.882C35.4459 51.0457 32.5705 51.6266 29.5074 51.625ZM29.5 49.1667C34.9903 49.1667 39.6406 47.2615 43.451 43.451C47.2615 39.6406 49.1667 34.9903 49.1667 29.5C49.1667 29.2132 49.1642 28.9239 49.1593 28.6322C49.1544 28.3405 49.1363 28.0611 49.1052 27.7939C48.9954 28.8871 48.5611 29.7917 47.8023 30.5079C47.0418 31.2225 46.1101 31.5798 45.0072 31.5798H38.7655C37.6215 31.5798 36.6423 31.1733 35.8277 30.3604C35.0132 29.5475 34.606 28.5699 34.606 27.4276V25.3503H26.2845V21.1958C26.2845 20.0534 26.6926 19.0718 27.5087 18.2507C28.3233 17.4296 29.3025 17.019 30.4465 17.019H32.5262V15.1261C32.5262 13.933 32.9163 12.9939 33.6964 12.3089C34.4765 11.6238 35.4082 11.2288 36.4915 11.124C35.3885 10.6978 34.2577 10.3766 33.099 10.1603C31.9403 9.94396 30.7406 9.83497 29.5 9.83333C24.0097 9.83333 19.3594 11.7385 15.549 15.549C11.7385 19.3594 9.83333 24.0097 9.83333 29.5V30.2105C9.83333 30.4301 9.84972 30.6661 9.8825 30.9185H20.8958C23.2231 30.9185 25.1914 31.724 26.8008 33.335C28.4118 34.9444 29.2173 36.9053 29.2173 39.2178V41.3197H22.9756V48.0309C23.9851 48.3948 25.0389 48.675 26.137 48.8717C27.2351 49.0683 28.3561 49.1667 29.5 49.1667Z" fill="white"/>
</svg>
