<svg width="41" height="48" viewBox="0 0 41 48" fill="none" xmlns="http://www.w3.org/2000/svg">
<path d="M20.1354 0L0 6.73519V26.9408C0 38.1012 9.01374 47.1463 20.1354 47.1463C31.2571 47.1463 40.2708 38.1012 40.2708 26.9408V6.73519L20.1354 0ZM36.4954 26.9408C36.4954 36.007 29.1701 43.3578 20.1354 43.3578C11.1007 43.3578 3.77539 36.007 3.77539 26.9408V9.5766L20.1354 3.78855L36.4954 9.5766V26.9408Z" fill="white"/>
<path d="M13.0524 21.7012C12.8771 21.5259 12.6687 21.3869 12.4391 21.292C12.2096 21.1971 11.9635 21.1483 11.715 21.1483C11.4664 21.1483 11.2203 21.1971 10.9908 21.292C10.7613 21.3869 10.5529 21.5259 10.3775 21.7012C10.2014 21.8756 10.0616 22.0829 9.96625 22.3113C9.87087 22.5396 9.82178 22.7844 9.82178 23.0316C9.82178 23.2789 9.87087 23.5237 9.96625 23.752C10.0616 23.9804 10.2014 24.1877 10.3775 24.3621L17.1777 31.1269L17.2881 31.2367C17.454 31.402 17.651 31.5331 17.8678 31.6226C18.0847 31.7121 18.3172 31.7582 18.552 31.7582C18.7867 31.7582 19.0192 31.7121 19.2361 31.6226C19.453 31.5331 19.65 31.402 19.8158 31.2367L31.5611 19.5525C31.7273 19.3875 31.8591 19.1916 31.9491 18.9758C32.039 18.7601 32.0853 18.5288 32.0853 18.2953C32.0853 18.0617 32.039 17.8304 31.9491 17.6147C31.8591 17.3989 31.7273 17.203 31.5611 17.038L31.414 16.8916C31.2481 16.7263 31.0511 16.5951 30.8342 16.5057C30.6174 16.4162 30.3849 16.3701 30.1501 16.3701C29.9153 16.3701 29.6828 16.4162 29.466 16.5057C29.2491 16.5951 29.0521 16.7263 28.8862 16.8916L18.5493 27.1695L13.0524 21.7012Z" fill="white"/>
</svg>
