<svg width="66" height="66" viewBox="0 0 66 66" fill="none" xmlns="http://www.w3.org/2000/svg">
<g clip-path="url(#clip0_2074_497)">
<path d="M49.5 11L55 19.25H46.75L41.25 11H35.75L41.25 19.25H33L27.5 11H22L27.5 19.25H19.25L13.75 11H11C7.975 11 5.5275 13.475 5.5275 16.5L5.5 49.5C5.5 52.525 7.975 55 11 55H55C58.025 55 60.5 52.525 60.5 49.5V11H49.5ZM30.9375 41.9375L27.5 49.5L24.0625 41.9375L16.5 38.5L24.0625 35.0625L27.5 27.5L30.9375 35.0625L38.5 38.5L30.9375 41.9375ZM46.585 32.835L44 38.5L41.415 32.835L35.75 30.25L41.415 27.665L44 22L46.585 27.665L52.25 30.25L46.585 32.835Z" fill="white"/>
</g>
<defs>
<clipPath id="clip0_2074_497">
<rect width="66" height="66" fill="white"/>
</clipPath>
</defs>
</svg>
