<svg width="46" height="55" viewBox="0 0 46 55" fill="none" xmlns="http://www.w3.org/2000/svg">
<path fill-rule="evenodd" clip-rule="evenodd" d="M2.51402 37.7479V7.54958C2.51402 5.54731 3.30942 3.62704 4.72524 2.21122C6.14106 0.7954 8.06132 0 10.0636 0H35.2289C37.2311 0 39.1514 0.7954 40.5672 2.21122C41.983 3.62704 42.7784 5.54731 42.7784 7.54958V37.7479C43.3676 37.7485 43.9378 37.9557 44.3898 38.3336C44.8418 38.7114 45.147 39.2358 45.2521 39.8155C45.3572 40.3952 45.2556 40.9933 44.965 41.5058C44.6744 42.0183 44.2132 42.4125 43.6617 42.6199L23.5295 50.1695C22.96 50.383 22.3324 50.383 21.7629 50.1695L1.63072 42.6199C1.07929 42.4125 0.618104 42.0183 0.327494 41.5058C0.0368835 40.9933 -0.0647243 40.3952 0.0403719 39.8155C0.145468 39.2358 0.450606 38.7114 0.902626 38.3336C1.35465 37.9557 1.92489 37.7485 2.51402 37.7479ZM25.1628 10.0661C25.1628 9.39868 24.8976 8.75859 24.4257 8.28665C23.9537 7.81471 23.3137 7.54958 22.6462 7.54958C21.9788 7.54958 21.3387 7.81471 20.8668 8.28665C20.3948 8.75859 20.1297 9.39868 20.1297 10.0661V12.5826H17.6132C15.9446 12.5826 14.3444 13.2455 13.1645 14.4253C11.9847 15.6052 11.3219 17.2054 11.3219 18.8739C11.3219 20.5425 11.9847 22.1427 13.1645 23.3226C14.3444 24.5024 15.9446 25.1653 17.6132 25.1653H27.6793C28.013 25.1653 28.333 25.2978 28.569 25.5338C28.805 25.7698 28.9375 26.0898 28.9375 26.4235C28.9375 26.7572 28.805 27.0773 28.569 27.3133C28.333 27.5492 28.013 27.6818 27.6793 27.6818H15.0966C14.4292 27.6818 13.7891 27.9469 13.3172 28.4189C12.8453 28.8908 12.5801 29.5309 12.5801 30.1983C12.5801 30.8657 12.8453 31.5058 13.3172 31.9778C13.7891 32.4497 14.4292 32.7148 15.0966 32.7148H20.1297V35.2314C20.1297 35.8988 20.3948 36.5389 20.8668 37.0108C21.3387 37.4828 21.9788 37.7479 22.6462 37.7479C23.3137 37.7479 23.9537 37.4828 24.4257 37.0108C24.8976 36.5389 25.1628 35.8988 25.1628 35.2314V32.7148H27.6793C29.3478 32.7148 30.9481 32.052 32.1279 30.8722C33.3078 29.6923 33.9706 28.0921 33.9706 26.4235C33.9706 24.755 33.3078 23.1547 32.1279 21.9749C30.9481 20.795 29.3478 20.1322 27.6793 20.1322H17.6132C17.2795 20.1322 16.9594 19.9996 16.7234 19.7637C16.4875 19.5277 16.3549 19.2077 16.3549 18.8739C16.3549 18.5402 16.4875 18.2202 16.7234 17.9842C16.9594 17.7482 17.2795 17.6157 17.6132 17.6157H30.1958C30.8632 17.6157 31.5033 17.3505 31.9753 16.8786C32.4472 16.4067 32.7123 15.7666 32.7123 15.0992C32.7123 14.4317 32.4472 13.7916 31.9753 13.3197C31.5033 12.8478 30.8632 12.5826 30.1958 12.5826H25.1628V10.0661Z" fill="white"/>
</svg>
