<svg width="49" height="49" viewBox="0 0 49 49" fill="none" xmlns="http://www.w3.org/2000/svg">
<path d="M28 8.84563e-08C25.5238 -0.000278231 23.0917 0.656228 20.952 1.90256C18.8123 3.14889 17.0414 4.94045 15.82 7.0945C18.3417 7.35772 20.7761 8.16573 22.9546 9.46261C25.1332 10.7595 27.004 12.5143 28.4375 14.6055C29.9798 14.2065 31.584 14.0047 33.25 14H42V4.025C42 2.9575 41.5759 1.93373 40.8211 1.1789C40.0663 0.424061 39.0425 8.84563e-08 37.975 8.84563e-08H28ZM44.653 17.5C47.054 17.5 49 19.446 49 21.847V33.25C49.0003 36.2161 48.163 39.1219 46.5845 41.6331C45.006 44.1443 42.7505 46.1587 40.0776 47.4445C37.4047 48.7303 34.4231 49.2352 31.4759 48.9011C28.5287 48.567 25.7357 47.4075 23.4185 45.556L20.489 48.489C20.1604 48.8171 19.7149 49.0013 19.2505 49.001C18.7861 49.0006 18.3409 48.8159 18.0128 48.4873C17.6846 48.1586 17.5004 47.7132 17.5008 47.2488C17.5011 46.7844 17.6859 46.3391 18.0145 46.011L20.944 43.0815C19.1404 40.8319 17.9904 38.1295 17.62 35.2701C17.2497 32.4106 17.6731 29.5044 18.844 26.8695C19.8718 24.5636 21.4366 22.5372 23.4076 20.9595C25.3786 19.3819 27.6985 18.2989 30.1735 17.801C31.1698 17.6003 32.1953 17.5 33.25 17.5H44.653ZM23.4395 40.586C24.1395 41.524 24.976 42.357 25.914 43.0605L34.489 34.4855C34.8078 34.1554 34.9842 33.7134 34.9802 33.2546C34.9762 32.7957 34.7921 32.3568 34.4677 32.0323C34.1432 31.7079 33.7043 31.5238 33.2454 31.5198C32.7866 31.5158 32.3446 31.6922 32.0145 32.011L23.4395 40.586ZM25.0075 15.848C21.252 17.6324 18.1723 20.5807 16.226 24.255L13.489 21.5145C13.3263 21.3518 13.1331 21.2227 12.9205 21.1347C12.708 21.0466 12.4801 21.0013 12.25 21.0013C12.0199 21.0013 11.792 21.0466 11.5795 21.1347C11.3669 21.2227 11.1737 21.3518 11.011 21.5145C10.8483 21.6772 10.7192 21.8704 10.6312 22.083C10.5431 22.2955 10.4978 22.5234 10.4978 22.7535C10.4978 22.9836 10.5431 23.2115 10.6312 23.424C10.7192 23.6366 10.8483 23.8298 11.011 23.9925L14.791 27.7725C14.2649 29.5507 13.9985 31.3956 14 33.25C14 35.063 14.252 36.82 14.721 38.4825C12.8242 38.5803 10.9274 38.2912 9.14586 37.6326C7.36437 36.9741 5.73551 35.9599 4.3584 34.6519C2.98128 33.3439 1.88472 31.7693 1.13545 30.0241C0.386173 28.2788 -0.000146216 26.3993 4.15134e-08 24.5V14.525C4.15134e-08 12.299 1.8025 10.5 4.025 10.5H14C18.466 10.5 22.4455 12.593 25.0075 15.848Z" fill="white"/>
</svg>
