<svg width="48" height="47" viewBox="0 0 48 47" fill="none" xmlns="http://www.w3.org/2000/svg">
<path d="M0 47H9.14286V21.7805H0V47ZM43.4286 35.5366H27.4286L22.6514 33.8629L23.4057 31.7078L27.4286 33.2439H33.8743C35.36 33.2439 36.5714 32.0288 36.5714 30.5385C36.5714 29.4151 35.8629 28.4063 34.8114 27.9937L18.2171 21.7805H13.7143V42.4605L29.7143 47L48 40.122C47.9771 37.6 45.9657 35.5366 43.4286 35.5366ZM29.7143 0L13.7143 11.4634V17.1951H18.2857L36.8914 24.6693C39.4514 25.701 41.1429 28.1771 41.1429 30.9512H45.7143V11.4634L29.7143 0ZM28.5714 19.4878H26.2857V17.1951H28.5714V19.4878ZM28.5714 14.9024H26.2857V12.6098H28.5714V14.9024ZM33.1429 19.4878H30.8571V17.1951H33.1429V19.4878ZM33.1429 14.9024H30.8571V12.6098H33.1429V14.9024Z" fill="white"/>
</svg>
