<svg width="46" height="51" viewBox="0 0 46 51" fill="none" xmlns="http://www.w3.org/2000/svg">
<path d="M10.8924 25.5C10.2505 25.5 9.6348 25.7559 9.18086 26.2113C8.72692 26.6668 8.4719 27.2845 8.4719 27.9286C8.4719 28.5727 8.72692 29.1904 9.18086 29.6458C9.6348 30.1013 10.2505 30.3571 10.8924 30.3571C11.5344 30.3571 12.1501 30.1013 12.604 29.6458C13.058 29.1904 13.313 28.5727 13.313 27.9286C13.313 27.2845 13.058 26.6668 12.604 26.2113C12.1501 25.7559 11.5344 25.5 10.8924 25.5ZM8.4719 19.4286C8.4719 20.0727 8.72692 20.6904 9.18086 21.1458C9.6348 21.6013 10.2505 21.8571 10.8924 21.8571C11.5344 21.8571 12.1501 21.6013 12.604 21.1458C13.058 20.6904 13.313 20.0727 13.313 19.4286C13.313 18.7845 13.058 18.1668 12.604 17.7113C12.1501 17.2559 11.5344 17 10.8924 17C10.2505 17 9.6348 17.2559 9.18086 17.7113C8.72692 18.1668 8.4719 18.7845 8.4719 19.4286ZM19.3643 8.5C18.7224 8.5 18.1067 8.75587 17.6528 9.21131C17.1988 9.66676 16.9438 10.2845 16.9438 10.9286C16.9438 11.5727 17.1988 12.1904 17.6528 12.6458C18.1067 13.1013 18.7224 13.3571 19.3643 13.3571C20.0063 13.3571 20.622 13.1013 21.0759 12.6458C21.5299 12.1904 21.7849 11.5727 21.7849 10.9286C21.7849 10.2845 21.5299 9.66676 21.0759 9.21131C20.622 8.75587 20.0063 8.5 19.3643 8.5ZM0 5.46429C0 4.01507 0.573797 2.6252 1.59516 1.60045C2.61653 0.5757 4.00179 0 5.44622 0H24.8106C26.255 0 27.6403 0.5757 28.6616 1.60045C29.683 2.6252 30.2568 4.01507 30.2568 5.46429V18.2143H33.2897C34.0049 18.2143 34.7131 18.3556 35.3739 18.6302C36.0347 18.9048 36.6351 19.3073 37.1408 19.8147C37.6465 20.3221 38.0477 20.9245 38.3214 21.5875C38.5951 22.2504 38.736 22.961 38.736 23.6786V26.9644C37.6709 27.2631 36.7148 27.8241 35.9402 28.5697C35.3666 26.7792 34.175 25.2528 32.5798 24.2652C30.9845 23.2776 29.0903 22.8936 27.238 23.1822C25.3857 23.4709 23.6969 24.4133 22.4754 25.8399C21.2539 27.2665 20.5799 29.0836 20.5746 30.9643C20.5746 33.0941 21.4145 35.0273 22.7822 36.4456C19.2288 36.72 16.9438 40.0641 16.9438 43.4107C16.9438 44.7319 17.1883 46.0821 17.7281 47.3571H1.81541C1.33393 47.3571 0.872175 47.1652 0.53172 46.8237C0.191265 46.4821 0 46.0188 0 45.5357V5.46429ZM10.8924 8.5C10.2505 8.5 9.6348 8.75587 9.18086 9.21131C8.72692 9.66676 8.4719 10.2845 8.4719 10.9286C8.4719 11.5727 8.72692 12.1904 9.18086 12.6458C9.6348 13.1013 10.2505 13.3571 10.8924 13.3571C11.5344 13.3571 12.1501 13.1013 12.604 12.6458C13.058 12.1904 13.313 11.5727 13.313 10.9286C13.313 10.2845 13.058 9.66676 12.604 9.21131C12.1501 8.75587 11.5344 8.5 10.8924 8.5ZM16.9438 19.4286C16.9438 20.0727 17.1988 20.6904 17.6528 21.1458C18.1067 21.6013 18.7224 21.8571 19.3643 21.8571C20.0063 21.8571 20.622 21.6013 21.0759 21.1458C21.5299 20.6904 21.7849 20.0727 21.7849 19.4286C21.7849 18.7845 21.5299 18.1668 21.0759 17.7113C20.622 17.2559 20.0063 17 19.3643 17C18.7224 17 18.1067 17.2559 17.6528 17.7113C17.1988 18.1668 16.9438 18.7845 16.9438 19.4286ZM33.8876 30.9643C33.8876 32.4135 33.3138 33.8034 32.2924 34.8281C31.2711 35.8529 29.8858 36.4286 28.4414 36.4286C26.997 36.4286 25.6117 35.8529 24.5903 34.8281C23.569 33.8034 22.9952 32.4135 22.9952 30.9643C22.9952 29.5151 23.569 28.1252 24.5903 27.1005C25.6117 26.0757 26.997 25.5 28.4414 25.5C29.8858 25.5 31.2711 26.0757 32.2924 27.1005C33.3138 28.1252 33.8876 29.5151 33.8876 30.9643ZM37.5184 43.4107C37.5184 47.1896 34.926 51 28.4414 51C21.9567 51 19.3643 47.2041 19.3643 43.4107C19.3643 40.8971 21.1071 38.8571 23.2542 38.8571H33.6286C35.7756 38.8571 37.5184 40.8971 37.5184 43.4107ZM40.5441 37.6429C41.6675 37.6429 42.745 37.1951 43.5394 36.3981C44.3338 35.601 44.78 34.52 44.78 33.3929C44.78 32.2657 44.3338 31.1847 43.5394 30.3877C42.745 29.5906 41.6675 29.1429 40.5441 29.1429C39.4207 29.1429 38.3432 29.5906 37.5488 30.3877C36.7544 31.1847 36.3081 32.2657 36.3081 33.3929C36.3081 34.52 36.7544 35.601 37.5488 36.3981C38.3432 37.1951 39.4207 37.6429 40.5441 37.6429ZM39.9341 43.4107C39.9472 45.2275 39.4597 47.0126 38.5254 48.569L38.7384 48.5714C43.9256 48.5714 46 45.9049 46 43.2601C46 41.4994 44.6082 40.0714 42.8872 40.0714H39.1595C39.663 41.1011 39.9341 42.2571 39.9341 43.4107Z" fill="white"/>
</svg>
