<svg width="49" height="47" viewBox="0 0 49 47" fill="none" xmlns="http://www.w3.org/2000/svg">
<path fill-rule="evenodd" clip-rule="evenodd" d="M25.2258 0.160539C24.9967 0.0547409 24.7481 0 24.4965 0C24.2449 0 23.9962 0.0547409 23.7672 0.160539L14.526 4.43331L24.4894 9.04247L34.4599 4.42973L25.2258 0.160539ZM12.8701 18.5256V7.59674L22.7349 12.1594V24.2369L13.8953 20.1538C13.5876 20.0117 13.3266 19.7825 13.1435 19.4938C12.9605 19.2051 12.8631 18.869 12.863 18.5256H12.8701ZM26.2581 42.5447V30.5924L35.6015 34.9153V46.9928L26.7724 42.9097C26.5796 42.8207 26.4077 42.697 26.2581 42.5447ZM39.1246 47V34.9153L49 30.3491V41.2815C48.9999 41.6249 48.9025 41.961 48.7195 42.2497C48.5364 42.5384 48.2755 42.7676 47.9677 42.9097L39.1246 47ZM22.7279 30.5924V42.559C22.5813 42.7048 22.4108 42.8235 22.224 42.9097L13.3809 47V34.9153L22.7279 30.5924ZM9.85778 34.9153V46.9928L1.03228 42.9097C0.724533 42.7676 0.46356 42.5384 0.280517 42.2497C0.097474 41.961 9.36152e-05 41.6249 0 41.2815V30.3526L9.86483 34.9153H9.85778ZM26.251 24.2441V12.1558L36.1264 7.58958V18.5256C36.1263 18.869 36.0289 19.2051 35.8459 19.4938C35.6628 19.7825 35.4019 20.0117 35.0941 20.1538L26.251 24.2441ZM36.6373 22.92C36.8663 22.8142 37.115 22.7595 37.3666 22.7595C37.6181 22.7595 37.8668 22.8142 38.0958 22.92L47.3265 27.1856L37.356 31.7984L27.4031 27.1856L36.6408 22.9129L36.6373 22.92ZM10.8971 22.92C11.1261 22.8142 11.3748 22.7595 11.6264 22.7595C11.878 22.7595 12.1267 22.8142 12.3557 22.92L21.5864 27.1856L11.6194 31.802L1.6594 27.1856L10.8971 22.92Z" fill="white"/>
</svg>
