<svg width="66" height="53" viewBox="0 0 66 53" fill="none" xmlns="http://www.w3.org/2000/svg">
<g clip-path="url(#clip0_2074_527)">
<path d="M34.5985 0.413867L64.2985 16.9764C65.8866 17.8666 66.4641 19.8852 65.5772 21.4793C64.6903 23.0734 62.6794 23.6531 61.0913 22.7629L33 7.10098L4.89845 22.7732C3.31033 23.6635 1.29939 23.0838 0.412515 21.4897C-0.47436 19.8955 0.10314 17.877 1.69126 16.9867L31.4016 0.413867C32.4019 -0.145117 33.6085 -0.145117 34.6088 0.413867H34.5985ZM33 16.5623C34.094 16.5623 35.1432 16.9985 35.9168 17.7751C36.6904 18.5516 37.125 19.6048 37.125 20.7029C37.125 21.8011 36.6904 22.8543 35.9168 23.6308C35.1432 24.4073 34.094 24.8436 33 24.8436C31.906 24.8436 30.8568 24.4073 30.0832 23.6308C29.3096 22.8543 28.875 21.8011 28.875 20.7029C28.875 19.6048 29.3096 18.5516 30.0832 17.7751C30.8568 16.9985 31.906 16.5623 33 16.5623ZM14.85 26.4998C15.944 26.4998 16.9932 26.936 17.7668 27.7126C18.5404 28.4891 18.975 29.5423 18.975 30.6404C18.975 31.7386 18.5404 32.7918 17.7668 33.5683C16.9932 34.3448 15.944 34.7811 14.85 34.7811C13.756 34.7811 12.7068 34.3448 11.9332 33.5683C11.1596 32.7918 10.725 31.7386 10.725 30.6404C10.725 29.5423 11.1596 28.4891 11.9332 27.7126C12.7068 26.936 13.756 26.4998 14.85 26.4998ZM47.025 30.6404C47.025 29.5423 47.4596 28.4891 48.2332 27.7126C49.0068 26.936 50.056 26.4998 51.15 26.4998C52.244 26.4998 53.2933 26.936 54.0668 27.7126C54.8404 28.4891 55.275 29.5423 55.275 30.6404C55.275 31.7386 54.8404 32.7918 54.0668 33.5683C53.2933 34.3448 52.244 34.7811 51.15 34.7811C50.056 34.7811 49.0068 34.3448 48.2332 33.5683C47.4596 32.7918 47.025 31.7386 47.025 30.6404ZM23.3991 50.8674L20.625 45.702V49.6873C20.625 51.5195 19.1503 52.9998 17.325 52.9998H12.375C10.5497 52.9998 9.07502 51.5195 9.07502 49.6873V45.702L6.30095 50.8674C5.65126 52.0785 4.15595 52.5236 2.94939 51.8818C1.74283 51.24 1.29939 49.7287 1.93876 48.5176L5.8472 41.2404C7.42501 38.2902 10.4981 36.4477 13.8394 36.4477H15.8503C17.5313 36.4477 19.14 36.9135 20.5322 37.752L23.9972 31.3029C25.575 28.3527 28.6481 26.5102 31.9894 26.5102H34.0003C37.3416 26.5102 40.4044 28.3527 41.9925 31.3029L45.4575 37.752C46.8497 36.9135 48.4585 36.4477 50.1394 36.4477H52.1503C55.4916 36.4477 58.5544 38.2902 60.1425 41.2404L64.051 48.5176C64.7006 49.7287 64.2469 51.2297 63.0403 51.8818C61.8338 52.534 60.3385 52.0785 59.6888 50.8674L56.925 45.702V49.6873C56.925 51.5195 55.4503 52.9998 53.625 52.9998H48.675C46.8497 52.9998 45.375 51.5195 45.375 49.6873V45.702L42.601 50.8674C41.9513 52.0785 40.456 52.5236 39.2494 51.8818C38.0428 51.24 37.5994 49.7287 38.2388 48.5176L41.9822 41.5303C41.8069 41.3543 41.6522 41.1576 41.5388 40.9299L38.775 35.7645V41.4061C38.775 43.2383 37.3003 44.7186 35.475 44.7186H30.525C28.6997 44.7186 27.225 43.2383 27.225 41.4061V35.7645L24.451 40.9299C24.3272 41.1576 24.1828 41.3543 24.0075 41.5303L27.751 48.5176C28.4006 49.7287 27.9469 51.2297 26.7403 51.8818C25.5338 52.534 24.0385 52.0785 23.3888 50.8674H23.3991Z" fill="white"/>
</g>
<defs>
<clipPath id="clip0_2074_527">
<rect width="66" height="53" fill="white"/>
</clipPath>
</defs>
</svg>
