<svg width="50" height="50" viewBox="0 0 50 50" fill="none" xmlns="http://www.w3.org/2000/svg">
<g clip-path="url(#clip0_2074_512)">
<path d="M26.8543 23.1252C23.146 21.896 21.3543 21.1252 21.3543 19.1668C21.3543 17.0418 23.6668 16.271 25.1252 16.271C27.8543 16.271 28.8543 18.3335 29.0835 19.0627L32.3752 17.6668C32.0627 16.7293 30.6668 13.6668 27.0835 13.0002V10.4168H22.9168V13.0418C17.7502 14.2085 17.7293 19.0002 17.7293 19.2085C17.7293 23.9377 22.4168 25.271 24.7085 26.1043C28.0002 27.271 29.4585 28.3335 29.4585 30.3335C29.4585 32.6877 27.271 33.6877 25.3335 33.6877C21.5418 33.6877 20.4585 29.7918 20.3335 29.3335L16.8752 30.7293C18.1877 35.2918 21.6252 36.521 22.9168 36.896V39.5835H27.0835V37.0002C27.9168 36.8127 33.1252 35.771 33.1252 30.2918C33.1252 27.396 31.8543 24.8543 26.8543 23.1252ZM6.25016 43.7502H2.0835V31.2502H14.5835V35.4168H9.41683C12.771 40.4377 18.5002 43.7502 25.0002 43.7502C35.3543 43.7502 43.7502 35.3543 43.7502 25.0002H47.9168C47.9168 37.6668 37.6668 47.9168 25.0002 47.9168C17.2502 47.9168 10.396 44.0627 6.25016 38.1877V43.7502ZM2.0835 25.0002C2.0835 12.3335 12.3335 2.0835 25.0002 2.0835C32.7502 2.0835 39.6043 5.93766 43.7502 11.8127V6.25016H47.9168V18.7502H35.4168V14.5835H40.5835C37.2293 9.56266 31.5002 6.25016 25.0002 6.25016C14.646 6.25016 6.25016 14.646 6.25016 25.0002H2.0835Z" fill="white"/>
</g>
<defs>
<clipPath id="clip0_2074_512">
<rect width="50" height="50" fill="white"/>
</clipPath>
</defs>
</svg>
