<svg width="50" height="48" viewBox="0 0 50 48" fill="none" xmlns="http://www.w3.org/2000/svg">
<path d="M24.9991 15.9994C24.9991 24.2351 20.1381 31.0175 13.8884 31.9015V43.9983H36.1098V32.0601H29.5447C28.521 32.0605 27.527 31.7292 26.7239 31.1197C25.9207 30.5102 25.3554 29.6583 25.1195 28.7019C24.8836 27.7455 24.9909 26.7407 25.424 25.8502C25.8571 24.9596 26.5907 24.2355 27.5059 23.7951C27.101 22.489 27.2202 21.0848 27.84 19.8588C28.4597 18.6329 29.5351 17.6741 30.8544 17.1714C30.6245 16.2122 30.6229 15.2156 30.8497 14.2557C31.0766 13.2959 31.526 12.3975 32.1645 11.6274C32.803 10.8574 33.6142 10.2355 34.5378 9.80808C35.4613 9.38065 36.4733 9.15867 37.4986 9.15867C38.5238 9.15867 39.5359 9.38065 40.4594 9.80808C41.3829 10.2355 42.1941 10.8574 42.8327 11.6274C43.4712 12.3975 43.9206 13.2959 44.1474 14.2557C44.3743 15.2156 44.3727 16.2122 44.1428 17.1714C45.4621 17.6741 46.5375 18.6329 47.1572 19.8588C47.777 21.0848 47.8961 22.489 47.4913 23.7951C48.4065 24.2355 49.1401 24.9596 49.5732 25.8502C50.0063 26.7407 50.1136 27.7455 49.8777 28.7019C49.6417 29.6583 49.0764 30.5102 48.2733 31.1197C47.4702 31.7292 46.4762 32.0605 45.4525 32.0601H38.8874V43.9983H47.9149C48.4674 43.9983 48.9973 44.209 49.3879 44.5841C49.7786 44.9592 49.9981 45.4679 49.9981 45.9983C49.9981 46.5287 49.7786 47.0374 49.3879 47.4124C48.9973 47.7875 48.4674 47.9982 47.9149 47.9982H2.08325C1.53074 47.9982 1.00086 47.7875 0.610171 47.4124C0.219485 47.0374 0 46.5287 0 45.9983C0 45.4679 0.219485 44.9592 0.610171 44.5841C1.00086 44.209 1.53074 43.9983 2.08325 43.9983H11.1107V31.9015C4.86093 31.0175 0 24.2351 0 15.9994C0 7.16373 5.59701 0 12.4995 0C19.402 0 24.9991 7.16373 24.9991 15.9994Z" fill="white"/>
<path d="M24.9991 15.9994C24.9991 24.2351 20.1381 31.0175 13.8884 31.9015V43.9983H36.1098V32.0601H29.5447C28.521 32.0605 27.527 31.7292 26.7239 31.1197C25.9207 30.5102 25.3554 29.6583 25.1195 28.7019C24.8836 27.7455 24.9909 26.7407 25.424 25.8502C25.8571 24.9596 26.5907 24.2355 27.5059 23.7951C27.101 22.489 27.2202 21.0848 27.84 19.8588C28.4597 18.6329 29.5351 17.6741 30.8544 17.1714C30.6245 16.2122 30.6229 15.2156 30.8497 14.2557C31.0766 13.2959 31.526 12.3975 32.1645 11.6274C32.803 10.8574 33.6142 10.2355 34.5378 9.80808C35.4613 9.38065 36.4733 9.15867 37.4986 9.15867C38.5238 9.15867 39.5359 9.38065 40.4594 9.80808C41.3829 10.2355 42.1941 10.8574 42.8327 11.6274C43.4712 12.3975 43.9206 13.2959 44.1474 14.2557C44.3743 15.2156 44.3727 16.2122 44.1428 17.1714C45.4621 17.6741 46.5375 18.6329 47.1572 19.8588C47.777 21.0848 47.8961 22.489 47.4913 23.7951C48.4065 24.2355 49.1401 24.9596 49.5732 25.8502C50.0063 26.7407 50.1136 27.7455 49.8777 28.7019C49.6417 29.6583 49.0764 30.5102 48.2733 31.1197C47.4702 31.7292 46.4762 32.0605 45.4525 32.0601H38.8874V43.9983H47.9149C48.4674 43.9983 48.9973 44.209 49.3879 44.5841C49.7786 44.9592 49.9981 45.4679 49.9981 45.9983C49.9981 46.5287 49.7786 47.0374 49.3879 47.4124C48.9973 47.7875 48.4674 47.9982 47.9149 47.9982H2.08325C1.53074 47.9982 1.00086 47.7875 0.610171 47.4124C0.219485 47.0374 0 46.5287 0 45.9983C0 45.4679 0.219485 44.9592 0.610171 44.5841C1.00086 44.209 1.53074 43.9983 2.08325 43.9983H11.1107V31.9015C4.86093 31.0175 0 24.2351 0 15.9994C0 7.16373 5.59701 0 12.4995 0C19.402 0 24.9991 7.16373 24.9991 15.9994Z" fill="white"/>
</svg>
