<svg width="43" height="43" viewBox="0 0 43 43" fill="none" xmlns="http://www.w3.org/2000/svg">
<path d="M21.5 0C10.0333 0 0 9.22111 0 21.5C0 26.5644 1.76778 31.2228 4.70611 34.9017L0 39.6317L3.36833 43L8.07444 38.2939C11.7772 41.2322 16.4356 43 21.5 43C26.9944 43 32.5128 40.8978 36.6933 36.6933C40.8978 32.5128 43 26.9944 43 21.5V0H21.5ZM30.6494 22.1211L18.3228 33.1817C17.9406 33.54 17.3433 33.5161 16.985 33.1578C16.6506 32.8233 16.6028 32.2978 16.8894 31.9156L22.7183 23.9606L13.0433 23.005C11.9922 22.9094 11.5383 21.5956 12.3267 20.8789L24.6533 9.81833C25.0356 9.46 25.6328 9.48389 25.9911 9.84222C26.3256 10.1767 26.3733 10.7022 26.0867 11.0844L20.2578 19.0394L29.9328 19.995C31.0078 20.0906 31.4378 21.4044 30.6494 22.1211Z" fill="white"/>
</svg>
