<svg width="42" height="52" viewBox="0 0 42 52" fill="none" xmlns="http://www.w3.org/2000/svg">
<path d="M21 0C7.00875 11.83 0 22.048 0 30.68C0 43.628 9.975 52 21 52C32.025 52 42 43.628 42 30.68C42 22.048 34.9912 11.83 21 0ZM10.0538 31.2C11.025 31.2 11.8125 31.876 11.9962 32.812C13.0725 38.584 17.9813 40.56 21.5513 40.274C22.68 40.222 23.625 41.106 23.625 42.224C23.625 43.264 22.785 44.122 21.735 44.174C16.1437 44.512 9.6075 41.34 8.11125 33.462C7.90125 32.292 8.84625 31.2 10.0538 31.2Z" fill="white"/>
</svg>
