<svg width="66" height="66" viewBox="0 0 66 66" fill="none" xmlns="http://www.w3.org/2000/svg">
<g clip-path="url(#clip0_2074_436)">
<path d="M35.3925 32.4775C34.76 31.4325 34.375 30.195 34.375 28.875C34.375 25.08 37.455 22 41.25 22H44C48.1525 22 49.5 19.25 49.5 19.25C49.5 19.25 51.0125 35.75 41.25 35.75C39.9025 35.75 38.665 35.365 37.62 34.705C36.96 36.465 35.9975 39.545 35.53 42.845C38.995 43.45 41.8 45.2925 43.1475 47.7125C47.795 44.495 50.875 39.105 50.875 33H59.125C59.125 47.41 47.41 59.125 33 59.125C18.59 59.125 6.875 47.41 6.875 33C6.875 18.59 18.59 6.875 33 6.875V0L44 11L33 22V15.125C23.155 15.125 15.125 23.155 15.125 33C15.125 39.0775 18.1775 44.4675 22.8525 47.7125C24.255 45.1825 27.335 43.2575 31.0475 42.7625C30.8 40.865 30.3325 38.8575 29.7 37.18C28.7375 38.005 27.5 38.5 26.125 38.5C23.1 38.5 20.625 36.025 20.625 33V30.2775C20.625 28.7375 20.1025 27.28 19.25 26.125C19.25 26.125 31.4875 25.4925 31.625 33C31.625 33.7975 31.46 34.54 31.1575 35.2C30.0025 34.32 28.7925 33.55 27.5 33C29.095 34.1825 31.2675 36.7675 33 40.15C34.8425 35.695 37.62 31.1575 41.25 27.5C39.16 28.93 37.2075 30.58 35.3925 32.4775Z" fill="white"/>
</g>
<defs>
<clipPath id="clip0_2074_436">
<rect width="66" height="66" fill="white"/>
</clipPath>
</defs>
</svg>
