<svg width="47" height="49" viewBox="0 0 47 49" fill="none" xmlns="http://www.w3.org/2000/svg">
<path d="M23.5053 33.075C21.2627 33.075 19.112 32.1716 17.5262 30.5634C15.9405 28.9553 15.0496 26.7742 15.0496 24.5C15.0496 22.2258 15.9405 20.0447 17.5262 18.4366C19.112 16.8284 21.2627 15.925 23.5053 15.925C25.7479 15.925 27.8987 16.8284 29.4844 18.4366C31.0702 20.0447 31.9611 22.2258 31.9611 24.5C31.9611 26.7742 31.0702 28.9553 29.4844 30.5634C27.8987 32.1716 25.7479 33.075 23.5053 33.075ZM41.4557 26.8765C41.5523 26.0925 41.6248 25.3085 41.6248 24.5C41.6248 23.6915 41.5523 22.883 41.4557 22.05L46.5533 18.0565C47.0123 17.689 47.1331 17.0275 46.8432 16.4885L42.0113 8.0115C41.7214 7.4725 41.0691 7.252 40.5376 7.4725L34.522 9.9225C33.2657 8.967 31.9611 8.134 30.439 7.5215L29.5451 1.029C29.4961 0.740436 29.3479 0.478801 29.1268 0.290456C28.9056 0.102111 28.6259 -0.000783447 28.3372 4.492e-06H18.6735C18.0695 4.492e-06 17.5622 0.441005 17.4655 1.029L16.5716 7.5215C15.0496 8.134 13.745 8.967 12.4887 9.9225L6.47306 7.4725C5.94156 7.252 5.28926 7.4725 4.99935 8.0115L0.1675 16.4885C-0.14657 17.0275 -0.00161457 17.689 0.457411 18.0565L5.55501 22.05C5.45838 22.883 5.3859 23.6915 5.3859 24.5C5.3859 25.3085 5.45838 26.0925 5.55501 26.8765L0.457411 30.9435C-0.00161457 31.311 -0.14657 31.9725 0.1675 32.5115L4.99935 40.9885C5.28926 41.5275 5.94156 41.7235 6.47306 41.5275L12.4887 39.053C13.745 40.033 15.0496 40.866 16.5716 41.4785L17.4655 47.971C17.5622 48.559 18.0695 49 18.6735 49H28.3372C28.9412 49 29.4485 48.559 29.5451 47.971L30.439 41.4785C31.9611 40.8415 33.2657 40.033 34.522 39.053L40.5376 41.5275C41.0691 41.7235 41.7214 41.5275 42.0113 40.9885L46.8432 32.5115C47.1331 31.9725 47.0123 31.311 46.5533 30.9435L41.4557 26.8765Z" fill="white"/>
</svg>
