<svg width="40" height="28" viewBox="0 0 40 28" fill="none" xmlns="http://www.w3.org/2000/svg">
<path d="M28.6247 14.0007C31.2697 14.0007 33.3972 11.854 33.3972 9.20898C33.3972 6.56398 31.2697 4.41732 28.6247 4.41732C25.9797 4.41732 23.833 6.56398 23.833 9.20898C23.833 11.854 25.9797 14.0007 28.6247 14.0007ZM14.2497 12.084C17.4313 12.084 19.9805 9.51565 19.9805 6.33398C19.9805 3.15232 17.4313 0.583984 14.2497 0.583984C11.068 0.583984 8.49967 3.15232 8.49967 6.33398C8.49967 9.51565 11.068 12.084 14.2497 12.084ZM28.6247 17.834C25.1172 17.834 18.083 19.5973 18.083 23.1048V27.4173H39.1663V23.1048C39.1663 19.5973 32.1322 17.834 28.6247 17.834ZM14.2497 15.9173C9.78384 15.9173 0.833008 18.1598 0.833008 22.6257V27.4173H14.2497V23.1048C14.2497 21.4757 14.8822 18.6198 18.7922 16.454C17.1247 16.109 15.5147 15.9173 14.2497 15.9173Z" fill="white"/>
</svg>
