<svg width="52" height="52" viewBox="0 0 52 52" fill="none" xmlns="http://www.w3.org/2000/svg">
<mask id="mask0_2074_815" style="mask-type:alpha" maskUnits="userSpaceOnUse" x="0" y="0" width="52" height="52">
<rect width="51.1558" height="51.1558" fill="#D9D9D9"/>
</mask>
<g mask="url(#mask0_2074_815)">
<path d="M23.4465 44.7614V27.7628C21.1729 27.7628 18.9881 27.3276 16.8921 26.4572C14.7962 25.5869 12.9489 24.3524 11.3503 22.7537C9.75163 21.1551 8.52602 19.3078 7.67343 17.2119C6.82083 15.1159 6.39453 12.9311 6.39453 10.6575V6.39453H10.6575C12.8956 6.39453 15.0626 6.82971 17.1586 7.70007C19.2545 8.57043 21.1018 9.80492 22.7005 11.4035C23.8017 12.5048 24.7165 13.7127 25.4447 15.0271C26.173 16.3415 26.7325 17.7447 27.1233 19.2368C27.3009 18.9881 27.4963 18.7483 27.7095 18.5174C27.9226 18.2865 28.1535 18.0467 28.4022 17.798C30.0008 16.1994 31.8481 14.9649 33.9441 14.0946C36.04 13.2242 38.2248 12.789 40.4984 12.789H44.7614V17.052C44.7614 19.3256 44.3262 21.5104 43.4559 23.6063C42.5855 25.7023 41.351 27.5496 39.7524 29.1482C38.1538 30.7468 36.3154 31.9725 34.2372 32.8251C32.1589 33.6777 29.983 34.1039 27.7095 34.1039V44.7614H23.4465ZM23.4465 23.4465C23.4465 21.7413 23.1179 20.116 22.4607 18.5707C21.8034 17.0254 20.8709 15.6488 19.6631 14.4409C18.4552 13.2331 17.0786 12.3005 15.5333 11.6433C13.988 10.9861 12.3627 10.6575 10.6575 10.6575C10.6575 12.3627 10.9772 13.9969 11.6167 15.56C12.2561 17.123 13.1798 18.5085 14.3876 19.7164C15.5955 20.9242 16.9809 21.8479 18.544 22.4873C20.1071 23.1268 21.7413 23.4465 23.4465 23.4465ZM27.7095 29.841C29.4147 29.841 31.0399 29.5212 32.5852 28.8818C34.1306 28.2423 35.5072 27.3187 36.715 26.1108C37.9229 24.903 38.8554 23.5175 39.5126 21.9544C40.1698 20.3913 40.4984 18.7572 40.4984 17.052C38.7932 17.052 37.1591 17.3806 35.596 18.0378C34.0329 18.695 32.6474 19.6276 31.4396 20.8354C30.2317 22.0432 29.3081 23.4198 28.6686 24.9652C28.0292 26.5105 27.7095 28.1358 27.7095 29.841Z" fill="white"/>
</g>
</svg>
